<mxfile host="app.diagrams.net" modified="2024-06-13T11:11:10.300Z" agent="Mozilla/5.0 (Windows NT 10.0; Win64; x64) AppleWebKit/537.36 (KHTML, like Gecko) Chrome/121.0.0.0 Safari/537.36" etag="ibIX82gBvZaG2gSj-7z-" version="24.5.4" type="device" pages="4">
  <diagram name="Página-1" id="-c2QyconOCnsrTDdFJ5u">
    <mxGraphModel dx="2261" dy="782" grid="1" gridSize="10" guides="1" tooltips="1" connect="1" arrows="1" fold="1" page="1" pageScale="1" pageWidth="827" pageHeight="1169" math="0" shadow="0">
      <root>
        <mxCell id="0" />
        <mxCell id="1" parent="0" />
        <mxCell id="rgNGae-GPq3PH6ZiQCpS-5" value="" style="edgeStyle=orthogonalEdgeStyle;rounded=0;orthogonalLoop=1;jettySize=auto;html=1;" parent="1" source="rgNGae-GPq3PH6ZiQCpS-1" target="rgNGae-GPq3PH6ZiQCpS-4" edge="1">
          <mxGeometry relative="1" as="geometry" />
        </mxCell>
        <mxCell id="rgNGae-GPq3PH6ZiQCpS-1" value="&lt;b&gt;INICIO&lt;/b&gt;" style="ellipse;whiteSpace=wrap;html=1;" parent="1" vertex="1">
          <mxGeometry x="10" y="30" width="120" height="80" as="geometry" />
        </mxCell>
        <mxCell id="rgNGae-GPq3PH6ZiQCpS-11" value="" style="edgeStyle=orthogonalEdgeStyle;rounded=0;orthogonalLoop=1;jettySize=auto;html=1;" parent="1" source="rgNGae-GPq3PH6ZiQCpS-4" target="rgNGae-GPq3PH6ZiQCpS-10" edge="1">
          <mxGeometry relative="1" as="geometry" />
        </mxCell>
        <mxCell id="rgNGae-GPq3PH6ZiQCpS-4" value="LISTAR CLIENTE&amp;nbsp;" style="whiteSpace=wrap;html=1;" parent="1" vertex="1">
          <mxGeometry x="10" y="200" width="120" height="60" as="geometry" />
        </mxCell>
        <mxCell id="rgNGae-GPq3PH6ZiQCpS-67" value="" style="edgeStyle=orthogonalEdgeStyle;rounded=0;orthogonalLoop=1;jettySize=auto;html=1;" parent="1" source="rgNGae-GPq3PH6ZiQCpS-8" target="rgNGae-GPq3PH6ZiQCpS-66" edge="1">
          <mxGeometry relative="1" as="geometry" />
        </mxCell>
        <mxCell id="rgNGae-GPq3PH6ZiQCpS-8" value="BUSCAR CLIENTE&amp;nbsp;" style="whiteSpace=wrap;html=1;" parent="1" vertex="1">
          <mxGeometry x="10" y="340" width="120" height="60" as="geometry" />
        </mxCell>
        <mxCell id="rgNGae-GPq3PH6ZiQCpS-14" value="NÃO" style="edgeStyle=orthogonalEdgeStyle;rounded=0;orthogonalLoop=1;jettySize=auto;html=1;" parent="1" source="rgNGae-GPq3PH6ZiQCpS-10" target="rgNGae-GPq3PH6ZiQCpS-12" edge="1">
          <mxGeometry relative="1" as="geometry" />
        </mxCell>
        <mxCell id="rgNGae-GPq3PH6ZiQCpS-10" value="POSSUI CADASTRO?" style="rhombus;whiteSpace=wrap;html=1;" parent="1" vertex="1">
          <mxGeometry x="230" y="190" width="80" height="80" as="geometry" />
        </mxCell>
        <mxCell id="rgNGae-GPq3PH6ZiQCpS-17" value="" style="edgeStyle=orthogonalEdgeStyle;rounded=0;orthogonalLoop=1;jettySize=auto;html=1;" parent="1" source="rgNGae-GPq3PH6ZiQCpS-12" target="rgNGae-GPq3PH6ZiQCpS-16" edge="1">
          <mxGeometry relative="1" as="geometry" />
        </mxCell>
        <mxCell id="rgNGae-GPq3PH6ZiQCpS-12" value="CADASTRAR CLIENTE&amp;nbsp;" style="whiteSpace=wrap;html=1;" parent="1" vertex="1">
          <mxGeometry x="420" y="200" width="120" height="60" as="geometry" />
        </mxCell>
        <mxCell id="rgNGae-GPq3PH6ZiQCpS-37" value="NÃO" style="edgeStyle=orthogonalEdgeStyle;rounded=0;orthogonalLoop=1;jettySize=auto;html=1;" parent="1" source="rgNGae-GPq3PH6ZiQCpS-16" target="rgNGae-GPq3PH6ZiQCpS-36" edge="1">
          <mxGeometry relative="1" as="geometry">
            <Array as="points">
              <mxPoint x="680" y="340" />
              <mxPoint x="580" y="340" />
            </Array>
          </mxGeometry>
        </mxCell>
        <mxCell id="rgNGae-GPq3PH6ZiQCpS-58" value="SIM" style="edgeStyle=orthogonalEdgeStyle;rounded=0;orthogonalLoop=1;jettySize=auto;html=1;" parent="1" source="rgNGae-GPq3PH6ZiQCpS-16" target="rgNGae-GPq3PH6ZiQCpS-57" edge="1">
          <mxGeometry relative="1" as="geometry" />
        </mxCell>
        <mxCell id="rgNGae-GPq3PH6ZiQCpS-16" value="É VALIDO?" style="rhombus;whiteSpace=wrap;html=1;" parent="1" vertex="1">
          <mxGeometry x="640" y="190" width="80" height="80" as="geometry" />
        </mxCell>
        <mxCell id="rgNGae-GPq3PH6ZiQCpS-36" value="MOSTRAR ERRO&amp;nbsp;" style="whiteSpace=wrap;html=1;" parent="1" vertex="1">
          <mxGeometry x="520" y="360" width="120" height="60" as="geometry" />
        </mxCell>
        <mxCell id="rgNGae-GPq3PH6ZiQCpS-41" style="edgeStyle=orthogonalEdgeStyle;rounded=0;orthogonalLoop=1;jettySize=auto;html=1;entryX=0.417;entryY=1;entryDx=0;entryDy=0;entryPerimeter=0;" parent="1" source="rgNGae-GPq3PH6ZiQCpS-36" target="rgNGae-GPq3PH6ZiQCpS-12" edge="1">
          <mxGeometry relative="1" as="geometry">
            <Array as="points">
              <mxPoint x="580" y="340" />
              <mxPoint x="470" y="340" />
            </Array>
          </mxGeometry>
        </mxCell>
        <mxCell id="rgNGae-GPq3PH6ZiQCpS-62" style="edgeStyle=orthogonalEdgeStyle;rounded=0;orthogonalLoop=1;jettySize=auto;html=1;entryX=1;entryY=0.5;entryDx=0;entryDy=0;" parent="1" source="rgNGae-GPq3PH6ZiQCpS-57" target="rgNGae-GPq3PH6ZiQCpS-1" edge="1">
          <mxGeometry relative="1" as="geometry" />
        </mxCell>
        <mxCell id="rgNGae-GPq3PH6ZiQCpS-57" value="CADASTRADO&amp;nbsp;&lt;div&gt;COM SUCESSO&lt;/div&gt;" style="whiteSpace=wrap;html=1;" parent="1" vertex="1">
          <mxGeometry x="620" y="40" width="120" height="60" as="geometry" />
        </mxCell>
        <mxCell id="rgNGae-GPq3PH6ZiQCpS-69" value="NÃO" style="edgeStyle=orthogonalEdgeStyle;rounded=0;orthogonalLoop=1;jettySize=auto;html=1;entryX=0;entryY=0.25;entryDx=0;entryDy=0;" parent="1" source="rgNGae-GPq3PH6ZiQCpS-66" target="rgNGae-GPq3PH6ZiQCpS-8" edge="1">
          <mxGeometry relative="1" as="geometry">
            <Array as="points">
              <mxPoint x="-10" y="500" />
              <mxPoint x="-10" y="355" />
            </Array>
          </mxGeometry>
        </mxCell>
        <mxCell id="rgNGae-GPq3PH6ZiQCpS-94" value="SIM" style="edgeStyle=orthogonalEdgeStyle;rounded=0;orthogonalLoop=1;jettySize=auto;html=1;" parent="1" source="rgNGae-GPq3PH6ZiQCpS-66" target="rgNGae-GPq3PH6ZiQCpS-70" edge="1">
          <mxGeometry relative="1" as="geometry" />
        </mxCell>
        <mxCell id="rgNGae-GPq3PH6ZiQCpS-66" value="CLIENTE ENCONTRADO?" style="rhombus;whiteSpace=wrap;html=1;" parent="1" vertex="1">
          <mxGeometry x="20" y="450" width="100" height="100" as="geometry" />
        </mxCell>
        <mxCell id="rgNGae-GPq3PH6ZiQCpS-73" value="SIM" style="edgeStyle=orthogonalEdgeStyle;rounded=0;orthogonalLoop=1;jettySize=auto;html=1;" parent="1" source="rgNGae-GPq3PH6ZiQCpS-70" target="rgNGae-GPq3PH6ZiQCpS-72" edge="1">
          <mxGeometry relative="1" as="geometry" />
        </mxCell>
        <mxCell id="rgNGae-GPq3PH6ZiQCpS-84" value="NÃO" style="edgeStyle=orthogonalEdgeStyle;rounded=0;orthogonalLoop=1;jettySize=auto;html=1;" parent="1" source="rgNGae-GPq3PH6ZiQCpS-70" target="rgNGae-GPq3PH6ZiQCpS-83" edge="1">
          <mxGeometry relative="1" as="geometry" />
        </mxCell>
        <mxCell id="rgNGae-GPq3PH6ZiQCpS-70" value="APAGAR?" style="rhombus;whiteSpace=wrap;html=1;" parent="1" vertex="1">
          <mxGeometry x="30" y="605" width="80" height="80" as="geometry" />
        </mxCell>
        <mxCell id="rgNGae-GPq3PH6ZiQCpS-77" value="SIM" style="edgeStyle=orthogonalEdgeStyle;rounded=0;orthogonalLoop=1;jettySize=auto;html=1;" parent="1" source="rgNGae-GPq3PH6ZiQCpS-72" target="rgNGae-GPq3PH6ZiQCpS-76" edge="1">
          <mxGeometry relative="1" as="geometry" />
        </mxCell>
        <mxCell id="JEm-6Xkte60s6CVg62wa-1" value="NÃO&amp;nbsp;" style="edgeStyle=orthogonalEdgeStyle;rounded=0;orthogonalLoop=1;jettySize=auto;html=1;entryX=0.5;entryY=1;entryDx=0;entryDy=0;" edge="1" parent="1" source="rgNGae-GPq3PH6ZiQCpS-72" target="rgNGae-GPq3PH6ZiQCpS-83">
          <mxGeometry relative="1" as="geometry">
            <Array as="points">
              <mxPoint x="-90" y="705" />
              <mxPoint x="240" y="705" />
            </Array>
          </mxGeometry>
        </mxCell>
        <mxCell id="rgNGae-GPq3PH6ZiQCpS-72" value="DESEJA APAGAR ISSO ?" style="rhombus;whiteSpace=wrap;html=1;" parent="1" vertex="1">
          <mxGeometry x="-135" y="600" width="90" height="90" as="geometry" />
        </mxCell>
        <mxCell id="rgNGae-GPq3PH6ZiQCpS-76" value="APAGAR CLIENTE" style="whiteSpace=wrap;html=1;" parent="1" vertex="1">
          <mxGeometry x="-150" y="460" width="120" height="60" as="geometry" />
        </mxCell>
        <mxCell id="rgNGae-GPq3PH6ZiQCpS-78" style="edgeStyle=orthogonalEdgeStyle;rounded=0;orthogonalLoop=1;jettySize=auto;html=1;entryX=0.008;entryY=0.425;entryDx=0;entryDy=0;entryPerimeter=0;" parent="1" source="rgNGae-GPq3PH6ZiQCpS-76" target="rgNGae-GPq3PH6ZiQCpS-1" edge="1">
          <mxGeometry relative="1" as="geometry">
            <Array as="points">
              <mxPoint x="-90" y="64" />
            </Array>
          </mxGeometry>
        </mxCell>
        <mxCell id="rgNGae-GPq3PH6ZiQCpS-86" value="SIM" style="edgeStyle=orthogonalEdgeStyle;rounded=0;orthogonalLoop=1;jettySize=auto;html=1;" parent="1" source="rgNGae-GPq3PH6ZiQCpS-83" target="rgNGae-GPq3PH6ZiQCpS-85" edge="1">
          <mxGeometry relative="1" as="geometry" />
        </mxCell>
        <mxCell id="XR5YhDe_duFgMrIYJcyH-1" style="edgeStyle=orthogonalEdgeStyle;rounded=0;orthogonalLoop=1;jettySize=auto;html=1;entryX=1;entryY=0.75;entryDx=0;entryDy=0;" edge="1" parent="1" source="rgNGae-GPq3PH6ZiQCpS-83" target="rgNGae-GPq3PH6ZiQCpS-8">
          <mxGeometry relative="1" as="geometry">
            <Array as="points">
              <mxPoint x="240" y="385" />
            </Array>
          </mxGeometry>
        </mxCell>
        <mxCell id="rgNGae-GPq3PH6ZiQCpS-83" value="ATUALIZAR?" style="rhombus;whiteSpace=wrap;html=1;" parent="1" vertex="1">
          <mxGeometry x="200" y="605" width="80" height="80" as="geometry" />
        </mxCell>
        <mxCell id="rgNGae-GPq3PH6ZiQCpS-90" value="SIM" style="edgeStyle=orthogonalEdgeStyle;rounded=0;orthogonalLoop=1;jettySize=auto;html=1;" parent="1" source="rgNGae-GPq3PH6ZiQCpS-85" target="rgNGae-GPq3PH6ZiQCpS-89" edge="1">
          <mxGeometry relative="1" as="geometry">
            <Array as="points">
              <mxPoint x="405" y="760" />
            </Array>
          </mxGeometry>
        </mxCell>
        <mxCell id="JEm-6Xkte60s6CVg62wa-3" style="edgeStyle=orthogonalEdgeStyle;rounded=0;orthogonalLoop=1;jettySize=auto;html=1;entryX=0.5;entryY=0;entryDx=0;entryDy=0;" edge="1" parent="1" source="rgNGae-GPq3PH6ZiQCpS-85" target="rgNGae-GPq3PH6ZiQCpS-83">
          <mxGeometry relative="1" as="geometry">
            <Array as="points">
              <mxPoint x="405" y="585" />
              <mxPoint x="240" y="585" />
            </Array>
          </mxGeometry>
        </mxCell>
        <mxCell id="rgNGae-GPq3PH6ZiQCpS-85" value="OS DADOS SÃO VALIDOS?" style="rhombus;whiteSpace=wrap;html=1;" parent="1" vertex="1">
          <mxGeometry x="360" y="600" width="90" height="90" as="geometry" />
        </mxCell>
        <mxCell id="rgNGae-GPq3PH6ZiQCpS-93" style="edgeStyle=orthogonalEdgeStyle;rounded=0;orthogonalLoop=1;jettySize=auto;html=1;entryX=0;entryY=0.5;entryDx=0;entryDy=0;" parent="1" source="rgNGae-GPq3PH6ZiQCpS-89" target="rgNGae-GPq3PH6ZiQCpS-1" edge="1">
          <mxGeometry relative="1" as="geometry">
            <Array as="points">
              <mxPoint x="540" y="840" />
              <mxPoint x="-170" y="840" />
              <mxPoint x="-170" y="70" />
            </Array>
          </mxGeometry>
        </mxCell>
        <mxCell id="GkKXNaheouPqaV0zloFi-3" value="" style="edgeStyle=orthogonalEdgeStyle;rounded=0;orthogonalLoop=1;jettySize=auto;html=1;" parent="1" source="rgNGae-GPq3PH6ZiQCpS-89" target="GkKXNaheouPqaV0zloFi-2" edge="1">
          <mxGeometry relative="1" as="geometry" />
        </mxCell>
        <mxCell id="rgNGae-GPq3PH6ZiQCpS-89" value="CADASTRO ATUALIZADO" style="whiteSpace=wrap;html=1;" parent="1" vertex="1">
          <mxGeometry x="480" y="730" width="120" height="60" as="geometry" />
        </mxCell>
        <mxCell id="GkKXNaheouPqaV0zloFi-2" value="FIM" style="ellipse;whiteSpace=wrap;html=1;" parent="1" vertex="1">
          <mxGeometry x="700" y="720" width="110" height="80" as="geometry" />
        </mxCell>
        <mxCell id="XR5YhDe_duFgMrIYJcyH-2" style="edgeStyle=orthogonalEdgeStyle;rounded=0;orthogonalLoop=1;jettySize=auto;html=1;entryX=1.008;entryY=0.65;entryDx=0;entryDy=0;entryPerimeter=0;" edge="1" parent="1" source="rgNGae-GPq3PH6ZiQCpS-10" target="rgNGae-GPq3PH6ZiQCpS-8">
          <mxGeometry relative="1" as="geometry">
            <Array as="points">
              <mxPoint x="270" y="379" />
            </Array>
          </mxGeometry>
        </mxCell>
      </root>
    </mxGraphModel>
  </diagram>
  <diagram id="4p1ethOtPt87IWJAUF-A" name="Página-2">
    <mxGraphModel dx="2261" dy="782" grid="1" gridSize="10" guides="1" tooltips="1" connect="1" arrows="1" fold="1" page="1" pageScale="1" pageWidth="827" pageHeight="1169" math="0" shadow="0">
      <root>
        <mxCell id="0" />
        <mxCell id="1" parent="0" />
        <mxCell id="T77zXkHdtmkHp0ugyWrL-38" value="" style="edgeStyle=orthogonalEdgeStyle;rounded=0;orthogonalLoop=1;jettySize=auto;html=1;" parent="1" target="T77zXkHdtmkHp0ugyWrL-41" edge="1">
          <mxGeometry relative="1" as="geometry">
            <mxPoint x="80" y="219" as="sourcePoint" />
          </mxGeometry>
        </mxCell>
        <mxCell id="T77zXkHdtmkHp0ugyWrL-39" value="" style="edgeStyle=orthogonalEdgeStyle;rounded=0;orthogonalLoop=1;jettySize=auto;html=1;" parent="1" source="T77zXkHdtmkHp0ugyWrL-41" target="T77zXkHdtmkHp0ugyWrL-44" edge="1">
          <mxGeometry relative="1" as="geometry" />
        </mxCell>
        <mxCell id="T77zXkHdtmkHp0ugyWrL-41" value="LISTAR FORNECEDOR&amp;nbsp;" style="whiteSpace=wrap;html=1;" parent="1" vertex="1">
          <mxGeometry x="20" y="309" width="120" height="60" as="geometry" />
        </mxCell>
        <mxCell id="T77zXkHdtmkHp0ugyWrL-42" value="NÃO" style="edgeStyle=orthogonalEdgeStyle;rounded=0;orthogonalLoop=1;jettySize=auto;html=1;" parent="1" source="T77zXkHdtmkHp0ugyWrL-44" target="T77zXkHdtmkHp0ugyWrL-51" edge="1">
          <mxGeometry relative="1" as="geometry" />
        </mxCell>
        <mxCell id="T77zXkHdtmkHp0ugyWrL-43" value="SIM" style="edgeStyle=orthogonalEdgeStyle;rounded=0;orthogonalLoop=1;jettySize=auto;html=1;entryX=1;entryY=0.5;entryDx=0;entryDy=0;" parent="1" source="T77zXkHdtmkHp0ugyWrL-44" target="T77zXkHdtmkHp0ugyWrL-55" edge="1">
          <mxGeometry relative="1" as="geometry">
            <mxPoint x="160" y="509" as="targetPoint" />
            <Array as="points">
              <mxPoint x="280" y="479" />
            </Array>
          </mxGeometry>
        </mxCell>
        <mxCell id="T77zXkHdtmkHp0ugyWrL-44" value="POSSUI CADASTRO?" style="rhombus;whiteSpace=wrap;html=1;" parent="1" vertex="1">
          <mxGeometry x="240" y="299" width="80" height="80" as="geometry" />
        </mxCell>
        <mxCell id="T77zXkHdtmkHp0ugyWrL-45" value="SIM" style="edgeStyle=orthogonalEdgeStyle;rounded=0;orthogonalLoop=1;jettySize=auto;html=1;" parent="1" source="T77zXkHdtmkHp0ugyWrL-47" target="T77zXkHdtmkHp0ugyWrL-49" edge="1">
          <mxGeometry relative="1" as="geometry" />
        </mxCell>
        <mxCell id="T77zXkHdtmkHp0ugyWrL-46" value="" style="edgeStyle=orthogonalEdgeStyle;rounded=0;orthogonalLoop=1;jettySize=auto;html=1;" parent="1" source="T77zXkHdtmkHp0ugyWrL-47" target="T77zXkHdtmkHp0ugyWrL-52" edge="1">
          <mxGeometry relative="1" as="geometry">
            <Array as="points">
              <mxPoint x="670" y="399" />
              <mxPoint x="560" y="399" />
            </Array>
          </mxGeometry>
        </mxCell>
        <mxCell id="T77zXkHdtmkHp0ugyWrL-47" value="É VALIDO?" style="rhombus;whiteSpace=wrap;html=1;" parent="1" vertex="1">
          <mxGeometry x="630" y="299" width="80" height="80" as="geometry" />
        </mxCell>
        <mxCell id="T77zXkHdtmkHp0ugyWrL-48" style="edgeStyle=orthogonalEdgeStyle;rounded=0;orthogonalLoop=1;jettySize=auto;html=1;entryX=1;entryY=0.5;entryDx=0;entryDy=0;" parent="1" source="T77zXkHdtmkHp0ugyWrL-49" edge="1">
          <mxGeometry relative="1" as="geometry">
            <mxPoint x="140" y="179" as="targetPoint" />
          </mxGeometry>
        </mxCell>
        <mxCell id="T77zXkHdtmkHp0ugyWrL-49" value="CADASTRADO COM SUCESSO" style="whiteSpace=wrap;html=1;" parent="1" vertex="1">
          <mxGeometry x="610" y="149" width="120" height="60" as="geometry" />
        </mxCell>
        <mxCell id="T77zXkHdtmkHp0ugyWrL-50" style="edgeStyle=orthogonalEdgeStyle;rounded=0;orthogonalLoop=1;jettySize=auto;html=1;entryX=0;entryY=0.5;entryDx=0;entryDy=0;" parent="1" source="T77zXkHdtmkHp0ugyWrL-51" target="T77zXkHdtmkHp0ugyWrL-47" edge="1">
          <mxGeometry relative="1" as="geometry" />
        </mxCell>
        <mxCell id="T77zXkHdtmkHp0ugyWrL-51" value="CADASTRAR FORNECEDOR&amp;nbsp;" style="whiteSpace=wrap;html=1;" parent="1" vertex="1">
          <mxGeometry x="380" y="309" width="120" height="60" as="geometry" />
        </mxCell>
        <mxCell id="T77zXkHdtmkHp0ugyWrL-52" value="MOSTRAR ERRO&amp;nbsp;" style="whiteSpace=wrap;html=1;" parent="1" vertex="1">
          <mxGeometry x="500" y="439" width="120" height="60" as="geometry" />
        </mxCell>
        <mxCell id="T77zXkHdtmkHp0ugyWrL-53" value="NÃO" style="edgeStyle=orthogonalEdgeStyle;rounded=0;orthogonalLoop=1;jettySize=auto;html=1;entryX=0.342;entryY=1.017;entryDx=0;entryDy=0;entryPerimeter=0;" parent="1" source="T77zXkHdtmkHp0ugyWrL-47" target="T77zXkHdtmkHp0ugyWrL-51" edge="1">
          <mxGeometry relative="1" as="geometry">
            <Array as="points">
              <mxPoint x="670" y="399" />
              <mxPoint x="421" y="399" />
            </Array>
          </mxGeometry>
        </mxCell>
        <mxCell id="T77zXkHdtmkHp0ugyWrL-54" value="" style="edgeStyle=orthogonalEdgeStyle;rounded=0;orthogonalLoop=1;jettySize=auto;html=1;" parent="1" source="T77zXkHdtmkHp0ugyWrL-55" target="T77zXkHdtmkHp0ugyWrL-58" edge="1">
          <mxGeometry relative="1" as="geometry" />
        </mxCell>
        <mxCell id="T77zXkHdtmkHp0ugyWrL-55" value="BUSCAR FORNECEDOR&amp;nbsp;" style="whiteSpace=wrap;html=1;" parent="1" vertex="1">
          <mxGeometry x="20" y="449" width="120" height="60" as="geometry" />
        </mxCell>
        <mxCell id="T77zXkHdtmkHp0ugyWrL-56" value="NÃO" style="edgeStyle=orthogonalEdgeStyle;rounded=0;orthogonalLoop=1;jettySize=auto;html=1;entryX=0;entryY=0.5;entryDx=0;entryDy=0;" parent="1" source="T77zXkHdtmkHp0ugyWrL-58" target="T77zXkHdtmkHp0ugyWrL-55" edge="1">
          <mxGeometry relative="1" as="geometry">
            <Array as="points">
              <mxPoint y="629" />
              <mxPoint y="479" />
            </Array>
          </mxGeometry>
        </mxCell>
        <mxCell id="T77zXkHdtmkHp0ugyWrL-57" value="SIM" style="edgeStyle=orthogonalEdgeStyle;rounded=0;orthogonalLoop=1;jettySize=auto;html=1;" parent="1" source="T77zXkHdtmkHp0ugyWrL-58" target="T77zXkHdtmkHp0ugyWrL-61" edge="1">
          <mxGeometry relative="1" as="geometry" />
        </mxCell>
        <mxCell id="T77zXkHdtmkHp0ugyWrL-58" value="FORNECEDOR ENCONTRADO?" style="rhombus;whiteSpace=wrap;html=1;" parent="1" vertex="1">
          <mxGeometry x="25" y="579" width="110" height="100" as="geometry" />
        </mxCell>
        <mxCell id="T77zXkHdtmkHp0ugyWrL-59" value="SIM" style="edgeStyle=orthogonalEdgeStyle;rounded=0;orthogonalLoop=1;jettySize=auto;html=1;" parent="1" source="T77zXkHdtmkHp0ugyWrL-61" target="T77zXkHdtmkHp0ugyWrL-63" edge="1">
          <mxGeometry relative="1" as="geometry" />
        </mxCell>
        <mxCell id="T77zXkHdtmkHp0ugyWrL-60" value="NÃO" style="edgeStyle=orthogonalEdgeStyle;rounded=0;orthogonalLoop=1;jettySize=auto;html=1;" parent="1" source="T77zXkHdtmkHp0ugyWrL-61" target="T77zXkHdtmkHp0ugyWrL-67" edge="1">
          <mxGeometry relative="1" as="geometry" />
        </mxCell>
        <mxCell id="T77zXkHdtmkHp0ugyWrL-61" value="APAGAR?" style="rhombus;whiteSpace=wrap;html=1;" parent="1" vertex="1">
          <mxGeometry x="40" y="739" width="80" height="80" as="geometry" />
        </mxCell>
        <mxCell id="T77zXkHdtmkHp0ugyWrL-62" value="SIM" style="edgeStyle=orthogonalEdgeStyle;rounded=0;orthogonalLoop=1;jettySize=auto;html=1;" parent="1" source="T77zXkHdtmkHp0ugyWrL-63" target="T77zXkHdtmkHp0ugyWrL-65" edge="1">
          <mxGeometry relative="1" as="geometry" />
        </mxCell>
        <mxCell id="T77zXkHdtmkHp0ugyWrL-63" value="CONFIRMAR?" style="rhombus;whiteSpace=wrap;html=1;" parent="1" vertex="1">
          <mxGeometry x="-120" y="739" width="80" height="80" as="geometry" />
        </mxCell>
        <mxCell id="T77zXkHdtmkHp0ugyWrL-64" style="edgeStyle=orthogonalEdgeStyle;rounded=0;orthogonalLoop=1;jettySize=auto;html=1;entryX=0;entryY=0.5;entryDx=0;entryDy=0;" parent="1" source="T77zXkHdtmkHp0ugyWrL-65" edge="1">
          <mxGeometry relative="1" as="geometry">
            <Array as="points">
              <mxPoint x="-80" y="179" />
            </Array>
            <mxPoint x="20" y="179" as="targetPoint" />
          </mxGeometry>
        </mxCell>
        <mxCell id="T77zXkHdtmkHp0ugyWrL-65" value="APAGAR FORNECEDOR&amp;nbsp;" style="whiteSpace=wrap;html=1;" parent="1" vertex="1">
          <mxGeometry x="-140" y="589" width="120" height="60" as="geometry" />
        </mxCell>
        <mxCell id="T77zXkHdtmkHp0ugyWrL-66" value="SIM" style="edgeStyle=orthogonalEdgeStyle;rounded=0;orthogonalLoop=1;jettySize=auto;html=1;" parent="1" source="T77zXkHdtmkHp0ugyWrL-67" target="T77zXkHdtmkHp0ugyWrL-70" edge="1">
          <mxGeometry relative="1" as="geometry" />
        </mxCell>
        <mxCell id="bFliOZ8y0a0KdIm1oyhC-1" value="NÃO" style="edgeStyle=orthogonalEdgeStyle;rounded=0;orthogonalLoop=1;jettySize=auto;html=1;entryX=1;entryY=1;entryDx=0;entryDy=0;" parent="1" source="T77zXkHdtmkHp0ugyWrL-67" target="T77zXkHdtmkHp0ugyWrL-55" edge="1">
          <mxGeometry relative="1" as="geometry">
            <Array as="points">
              <mxPoint x="240" y="509" />
            </Array>
          </mxGeometry>
        </mxCell>
        <mxCell id="T77zXkHdtmkHp0ugyWrL-67" value="ATUALIZAR?" style="rhombus;whiteSpace=wrap;html=1;" parent="1" vertex="1">
          <mxGeometry x="200" y="739" width="80" height="80" as="geometry" />
        </mxCell>
        <mxCell id="T77zXkHdtmkHp0ugyWrL-68" value="NÃO" style="edgeStyle=orthogonalEdgeStyle;rounded=0;orthogonalLoop=1;jettySize=auto;html=1;entryX=0.5;entryY=0;entryDx=0;entryDy=0;" parent="1" source="T77zXkHdtmkHp0ugyWrL-70" target="T77zXkHdtmkHp0ugyWrL-67" edge="1">
          <mxGeometry relative="1" as="geometry">
            <Array as="points">
              <mxPoint x="400" y="719" />
              <mxPoint x="240" y="719" />
            </Array>
          </mxGeometry>
        </mxCell>
        <mxCell id="T77zXkHdtmkHp0ugyWrL-69" value="" style="edgeStyle=orthogonalEdgeStyle;rounded=0;orthogonalLoop=1;jettySize=auto;html=1;" parent="1" source="T77zXkHdtmkHp0ugyWrL-70" target="T77zXkHdtmkHp0ugyWrL-72" edge="1">
          <mxGeometry relative="1" as="geometry" />
        </mxCell>
        <mxCell id="T77zXkHdtmkHp0ugyWrL-70" value="DADOS SÃO VALIDOS?" style="rhombus;whiteSpace=wrap;html=1;" parent="1" vertex="1">
          <mxGeometry x="360" y="739" width="80" height="80" as="geometry" />
        </mxCell>
        <mxCell id="T77zXkHdtmkHp0ugyWrL-71" style="edgeStyle=orthogonalEdgeStyle;rounded=0;orthogonalLoop=1;jettySize=auto;html=1;entryX=0.05;entryY=0.25;entryDx=0;entryDy=0;entryPerimeter=0;" parent="1" source="T77zXkHdtmkHp0ugyWrL-72" edge="1">
          <mxGeometry relative="1" as="geometry">
            <mxPoint x="26" y="159" as="targetPoint" />
            <Array as="points">
              <mxPoint x="560" y="849" />
              <mxPoint x="-200" y="849" />
              <mxPoint x="-200" y="159" />
            </Array>
          </mxGeometry>
        </mxCell>
        <mxCell id="T77zXkHdtmkHp0ugyWrL-72" value="CADASTRO ATUALIZADO" style="whiteSpace=wrap;html=1;" parent="1" vertex="1">
          <mxGeometry x="500" y="749" width="120" height="60" as="geometry" />
        </mxCell>
        <mxCell id="T77zXkHdtmkHp0ugyWrL-73" value="INICIO" style="ellipse;whiteSpace=wrap;html=1;" parent="1" vertex="1">
          <mxGeometry x="20" y="139" width="120" height="80" as="geometry" />
        </mxCell>
      </root>
    </mxGraphModel>
  </diagram>
  <diagram id="emHs5y1z4IdiYOe_hIwa" name="Página-4">
    <mxGraphModel dx="2261" dy="782" grid="1" gridSize="10" guides="1" tooltips="1" connect="1" arrows="1" fold="1" page="1" pageScale="1" pageWidth="827" pageHeight="1169" math="0" shadow="0">
      <root>
        <mxCell id="0" />
        <mxCell id="1" parent="0" />
        <mxCell id="3FGUaxCZPwPqk6HE0NR3-5" value="" style="shape=ext;double=1;rounded=1;whiteSpace=wrap;html=1;fillColor=#e1d5e7;strokeColor=#9673A6;glass=1;shadow=0;gradientColor=#9021FF;" parent="1" vertex="1">
          <mxGeometry x="140" y="80" width="450" height="800" as="geometry" />
        </mxCell>
        <mxCell id="C9YwJ8RE3Imof7lcPm9f-1" value="" style="shape=ext;double=1;rounded=0;whiteSpace=wrap;html=1;align=right;fillColor=#FFFFFF;strokeColor=#E5CCFF;" parent="1" vertex="1">
          <mxGeometry x="210" y="285" width="300" height="30" as="geometry" />
        </mxCell>
        <mxCell id="C9YwJ8RE3Imof7lcPm9f-2" value="" style="shape=ext;double=1;rounded=0;whiteSpace=wrap;html=1;align=left;strokeColor=#E5CCFF;" parent="1" vertex="1">
          <mxGeometry x="210" y="425" width="220" height="30" as="geometry" />
        </mxCell>
        <mxCell id="C9YwJ8RE3Imof7lcPm9f-4" value="" style="shape=ext;double=1;rounded=0;whiteSpace=wrap;html=1;align=left;strokeColor=#E5CCFF;" parent="1" vertex="1">
          <mxGeometry x="210" y="358" width="70" height="30" as="geometry" />
        </mxCell>
        <mxCell id="C9YwJ8RE3Imof7lcPm9f-5" value="" style="shape=ext;double=1;rounded=0;whiteSpace=wrap;html=1;align=left;strokeColor=#E5CCFF;" parent="1" vertex="1">
          <mxGeometry x="310" y="358" width="70" height="30" as="geometry" />
        </mxCell>
        <mxCell id="C9YwJ8RE3Imof7lcPm9f-6" value="" style="shape=ext;double=1;rounded=0;whiteSpace=wrap;html=1;align=left;strokeColor=#E5CCFF;" parent="1" vertex="1">
          <mxGeometry x="400" y="358" width="70" height="30" as="geometry" />
        </mxCell>
        <mxCell id="C9YwJ8RE3Imof7lcPm9f-7" value="&lt;font size=&quot;1&quot; style=&quot;&quot;&gt;&lt;b style=&quot;font-size: 15px;&quot;&gt;Data de nascimento (obrigatório)&lt;/b&gt;&lt;/font&gt;" style="text;html=1;align=center;verticalAlign=middle;whiteSpace=wrap;rounded=0;" parent="1" vertex="1">
          <mxGeometry x="210" y="333" width="250" height="10" as="geometry" />
        </mxCell>
        <mxCell id="C9YwJ8RE3Imof7lcPm9f-8" value="&lt;b style=&quot;&quot;&gt;&lt;font style=&quot;font-size: 15px;&quot;&gt;&amp;nbsp;celular (obrigatório):&lt;/font&gt;&lt;/b&gt;" style="text;html=1;align=center;verticalAlign=middle;whiteSpace=wrap;rounded=0;" parent="1" vertex="1">
          <mxGeometry x="200" y="400" width="160" height="20" as="geometry" />
        </mxCell>
        <mxCell id="C9YwJ8RE3Imof7lcPm9f-9" value="&lt;h5&gt;&lt;b&gt;&lt;font style=&quot;font-size: 15px;&quot;&gt;Nome completo (obrigatório):&lt;/font&gt;&lt;/b&gt;&lt;/h5&gt;" style="text;html=1;align=center;verticalAlign=middle;whiteSpace=wrap;rounded=0;" parent="1" vertex="1">
          <mxGeometry x="195" y="270" width="240" as="geometry" />
        </mxCell>
        <mxCell id="xBDRfDMu_sakobEnn5xp-2" value="&lt;br&gt;&lt;h5 style=&quot;forced-color-adjust: none; color: rgb(0, 0, 0); font-family: Helvetica; font-style: normal; font-variant-ligatures: normal; font-variant-caps: normal; letter-spacing: normal; orphans: 2; text-align: center; text-indent: 0px; text-transform: none; widows: 2; word-spacing: 0px; -webkit-text-stroke-width: 0px; white-space: normal; background-color: rgb(251, 251, 251); text-decoration-thickness: initial; text-decoration-style: initial; text-decoration-color: initial;&quot;&gt;&lt;br&gt;&lt;/h5&gt;" style="shape=ext;double=1;rounded=0;whiteSpace=wrap;html=1;fillColor=#9021FF;strokeColor=#9021FF;shadow=1;glass=1;gradientColor=#221e25;gradientDirection=north;" parent="1" vertex="1">
          <mxGeometry x="730" y="192.5" width="840" height="515" as="geometry" />
        </mxCell>
        <mxCell id="kTvp0TokoopNqMNdhtiS-154" style="edgeStyle=orthogonalEdgeStyle;rounded=0;orthogonalLoop=1;jettySize=auto;html=1;" parent="1" source="xBDRfDMu_sakobEnn5xp-11" edge="1">
          <mxGeometry relative="1" as="geometry">
            <mxPoint x="1030" y="750" as="targetPoint" />
          </mxGeometry>
        </mxCell>
        <mxCell id="xBDRfDMu_sakobEnn5xp-11" value="&lt;span style=&quot;font-size: 20px;&quot;&gt;&lt;b&gt;SALVAR&amp;nbsp;&lt;/b&gt;&lt;/span&gt;" style="shape=ext;double=1;rounded=0;whiteSpace=wrap;html=1;align=left;fillColor=#E5CCFF;" parent="1" vertex="1">
          <mxGeometry x="960" y="630" width="140" height="30" as="geometry" />
        </mxCell>
        <mxCell id="kTvp0TokoopNqMNdhtiS-152" value="" style="edgeStyle=orthogonalEdgeStyle;rounded=0;orthogonalLoop=1;jettySize=auto;html=1;" parent="1" source="xBDRfDMu_sakobEnn5xp-12" edge="1">
          <mxGeometry relative="1" as="geometry">
            <mxPoint x="1319" y="760" as="targetPoint" />
            <Array as="points">
              <mxPoint x="1319" y="730" />
              <mxPoint x="1319" y="730" />
            </Array>
          </mxGeometry>
        </mxCell>
        <mxCell id="xBDRfDMu_sakobEnn5xp-12" value="&lt;span style=&quot;font-size: 20px;&quot;&gt;&lt;b&gt;APAGAR&lt;/b&gt;&lt;/span&gt;" style="shape=ext;double=1;rounded=0;whiteSpace=wrap;html=1;align=left;fillColor=#E5CCFF;" parent="1" vertex="1">
          <mxGeometry x="1248.51" y="630" width="140" height="30" as="geometry" />
        </mxCell>
        <mxCell id="Ca7Og4_1Yag62Yb9-llx-1" value="" style="shape=ext;double=1;rounded=1;whiteSpace=wrap;html=1;fillColor=#e1d5e7;strokeColor=#9673A6;glass=1;shadow=0;gradientColor=#9021FF;" parent="1" vertex="1">
          <mxGeometry x="-630" y="70" width="450" height="800" as="geometry" />
        </mxCell>
        <mxCell id="Ca7Og4_1Yag62Yb9-llx-14" value="&lt;b&gt;&lt;font style=&quot;font-size: 30px;&quot;&gt;CLIENTE&amp;nbsp;&lt;/font&gt;&lt;/b&gt;" style="text;html=1;align=center;verticalAlign=middle;whiteSpace=wrap;rounded=0;" parent="1" vertex="1">
          <mxGeometry x="-500" y="150" width="260" height="30" as="geometry" />
        </mxCell>
        <mxCell id="Ca7Og4_1Yag62Yb9-llx-15" value="&lt;span style=&quot;font-size: 30px;&quot;&gt;&lt;b style=&quot;font-size: 20px;&quot;&gt;CADASTRO DE CLIENTE&amp;nbsp;&lt;/b&gt;&lt;/span&gt;" style="text;html=1;align=center;verticalAlign=middle;whiteSpace=wrap;rounded=0;" parent="1" vertex="1">
          <mxGeometry x="210" y="110" width="360" height="30" as="geometry" />
        </mxCell>
        <mxCell id="Ca7Og4_1Yag62Yb9-llx-31" value="" style="shape=ext;double=1;rounded=0;whiteSpace=wrap;html=1;align=right;fillColor=#FFFFFF;strokeColor=#E5CCFF;" parent="1" vertex="1">
          <mxGeometry x="-518" y="250" width="210" height="30" as="geometry" />
        </mxCell>
        <mxCell id="Ca7Og4_1Yag62Yb9-llx-32" value="" style="shape=ext;double=1;rounded=0;whiteSpace=wrap;html=1;align=right;fillColor=#FFFFFF;strokeColor=#E5CCFF;" parent="1" vertex="1">
          <mxGeometry x="-295" y="250" width="40" height="30" as="geometry" />
        </mxCell>
        <mxCell id="Ca7Og4_1Yag62Yb9-llx-33" value="" style="sketch=0;outlineConnect=0;fontColor=#232F3E;gradientColor=none;fillColor=#232F3D;strokeColor=none;dashed=0;verticalLabelPosition=bottom;verticalAlign=top;align=center;html=1;fontSize=12;fontStyle=0;aspect=fixed;pointerEvents=1;shape=mxgraph.aws4.magnifying_glass_2;" parent="1" vertex="1">
          <mxGeometry x="-285" y="255" width="20" height="20" as="geometry" />
        </mxCell>
        <mxCell id="Ca7Og4_1Yag62Yb9-llx-34" value="" style="shape=ext;double=1;rounded=0;whiteSpace=wrap;html=1;align=right;fillColor=#FFFFFF;strokeColor=#E5CCFF;" parent="1" vertex="1">
          <mxGeometry x="-600" y="325" width="300" height="30" as="geometry" />
        </mxCell>
        <mxCell id="Ca7Og4_1Yag62Yb9-llx-35" value="" style="shape=ext;double=1;rounded=0;whiteSpace=wrap;html=1;align=right;fillColor=#FFFFFF;strokeColor=#E5CCFF;" parent="1" vertex="1">
          <mxGeometry x="-600" y="375" width="300" height="30" as="geometry" />
        </mxCell>
        <mxCell id="Ca7Og4_1Yag62Yb9-llx-37" value="" style="shape=ext;double=1;rounded=0;whiteSpace=wrap;html=1;align=right;fillColor=#FFFFFF;strokeColor=#E5CCFF;" parent="1" vertex="1">
          <mxGeometry x="-600" y="420" width="300" height="30" as="geometry" />
        </mxCell>
        <mxCell id="Ca7Og4_1Yag62Yb9-llx-38" value="" style="shape=ext;double=1;rounded=0;whiteSpace=wrap;html=1;align=right;fillColor=#FFFFFF;strokeColor=#E5CCFF;" parent="1" vertex="1">
          <mxGeometry x="-600" y="470" width="300" height="30" as="geometry" />
        </mxCell>
        <mxCell id="Ca7Og4_1Yag62Yb9-llx-39" value="" style="shape=ext;double=1;rounded=0;whiteSpace=wrap;html=1;align=right;fillColor=#FFFFFF;strokeColor=#E5CCFF;" parent="1" vertex="1">
          <mxGeometry x="-600" y="515" width="300" height="30" as="geometry" />
        </mxCell>
        <mxCell id="Ca7Og4_1Yag62Yb9-llx-40" value="" style="shape=ext;double=1;rounded=0;whiteSpace=wrap;html=1;align=right;fillColor=#FFFFFF;strokeColor=#E5CCFF;" parent="1" vertex="1">
          <mxGeometry x="-600" y="575" width="300" height="30" as="geometry" />
        </mxCell>
        <mxCell id="kTvp0TokoopNqMNdhtiS-46" style="edgeStyle=orthogonalEdgeStyle;rounded=0;orthogonalLoop=1;jettySize=auto;html=1;" parent="1" source="UH4HD8jso4BTiTyw5NKZ-3" target="3FGUaxCZPwPqk6HE0NR3-5" edge="1">
          <mxGeometry relative="1" as="geometry">
            <Array as="points">
              <mxPoint x="-254" y="860" />
            </Array>
          </mxGeometry>
        </mxCell>
        <mxCell id="UH4HD8jso4BTiTyw5NKZ-3" value="&lt;font style=&quot;font-size: 25px;&quot;&gt;+&lt;/font&gt;" style="shape=ext;double=1;rounded=0;whiteSpace=wrap;html=1;align=center;fillColor=#FFFFFF;strokeColor=#E5CCFF;" parent="1" vertex="1">
          <mxGeometry x="-268.9" y="650" width="30" height="30" as="geometry" />
        </mxCell>
        <mxCell id="UH4HD8jso4BTiTyw5NKZ-9" value="&lt;h5&gt;&lt;br&gt;&lt;/h5&gt;" style="text;html=1;align=center;verticalAlign=middle;whiteSpace=wrap;rounded=0;" parent="1" vertex="1">
          <mxGeometry x="180" y="480" width="240" as="geometry" />
        </mxCell>
        <mxCell id="kTvp0TokoopNqMNdhtiS-1" value="" style="shape=ext;double=1;rounded=0;whiteSpace=wrap;html=1;align=right;fillColor=#FFFFFF;strokeColor=#E5CCFF;" parent="1" vertex="1">
          <mxGeometry x="-275.76" y="325" width="40" height="30" as="geometry" />
        </mxCell>
        <mxCell id="kTvp0TokoopNqMNdhtiS-2" value="" style="shape=ext;double=1;rounded=0;whiteSpace=wrap;html=1;align=right;fillColor=#FFFFFF;strokeColor=#E5CCFF;" parent="1" vertex="1">
          <mxGeometry x="-224" y="325" width="40" height="30" as="geometry" />
        </mxCell>
        <mxCell id="kTvp0TokoopNqMNdhtiS-3" value="" style="shape=ext;double=1;rounded=0;whiteSpace=wrap;html=1;align=right;fillColor=#FFFFFF;strokeColor=#E5CCFF;" parent="1" vertex="1">
          <mxGeometry x="-274.83" y="575" width="40" height="30" as="geometry" />
        </mxCell>
        <mxCell id="kTvp0TokoopNqMNdhtiS-4" value="" style="shape=ext;double=1;rounded=0;whiteSpace=wrap;html=1;align=right;fillColor=#FFFFFF;strokeColor=#E5CCFF;" parent="1" vertex="1">
          <mxGeometry x="-273.9" y="515" width="40" height="30" as="geometry" />
        </mxCell>
        <mxCell id="kTvp0TokoopNqMNdhtiS-5" value="" style="shape=ext;double=1;rounded=0;whiteSpace=wrap;html=1;align=right;fillColor=#FFFFFF;strokeColor=#E5CCFF;" parent="1" vertex="1">
          <mxGeometry x="-274.83" y="470" width="40" height="30" as="geometry" />
        </mxCell>
        <mxCell id="kTvp0TokoopNqMNdhtiS-6" value="" style="shape=ext;double=1;rounded=0;whiteSpace=wrap;html=1;align=right;fillColor=#FFFFFF;strokeColor=#E5CCFF;" parent="1" vertex="1">
          <mxGeometry x="-274.83" y="425" width="40" height="30" as="geometry" />
        </mxCell>
        <mxCell id="kTvp0TokoopNqMNdhtiS-7" value="" style="shape=ext;double=1;rounded=0;whiteSpace=wrap;html=1;align=right;fillColor=#FFFFFF;strokeColor=#E5CCFF;" parent="1" vertex="1">
          <mxGeometry x="-275.76" y="380" width="40" height="30" as="geometry" />
        </mxCell>
        <mxCell id="kTvp0TokoopNqMNdhtiS-9" value="" style="shape=ext;double=1;rounded=0;whiteSpace=wrap;html=1;align=right;fillColor=#FFFFFF;strokeColor=#E5CCFF;" parent="1" vertex="1">
          <mxGeometry x="-224" y="380" width="40" height="30" as="geometry" />
        </mxCell>
        <mxCell id="kTvp0TokoopNqMNdhtiS-10" value="" style="shape=ext;double=1;rounded=0;whiteSpace=wrap;html=1;align=right;fillColor=#FFFFFF;strokeColor=#E5CCFF;" parent="1" vertex="1">
          <mxGeometry x="-224" y="425" width="40" height="30" as="geometry" />
        </mxCell>
        <mxCell id="kTvp0TokoopNqMNdhtiS-11" value="" style="shape=ext;double=1;rounded=0;whiteSpace=wrap;html=1;align=right;fillColor=#FFFFFF;strokeColor=#E5CCFF;" parent="1" vertex="1">
          <mxGeometry x="-224" y="470" width="40" height="30" as="geometry" />
        </mxCell>
        <mxCell id="kTvp0TokoopNqMNdhtiS-12" value="" style="shape=ext;double=1;rounded=0;whiteSpace=wrap;html=1;align=right;fillColor=#FFFFFF;strokeColor=#E5CCFF;" parent="1" vertex="1">
          <mxGeometry x="-220" y="515" width="40" height="30" as="geometry" />
        </mxCell>
        <mxCell id="kTvp0TokoopNqMNdhtiS-13" value="" style="shape=ext;double=1;rounded=0;whiteSpace=wrap;html=1;align=right;fillColor=#FFFFFF;strokeColor=#E5CCFF;" parent="1" vertex="1">
          <mxGeometry x="-220" y="575" width="40" height="30" as="geometry" />
        </mxCell>
        <mxCell id="kTvp0TokoopNqMNdhtiS-14" value="" style="html=1;verticalLabelPosition=bottom;align=center;labelBackgroundColor=#ffffff;verticalAlign=top;strokeWidth=2;strokeColor=#0080F0;shadow=0;dashed=0;shape=mxgraph.ios7.icons.trashcan;" parent="1" vertex="1">
          <mxGeometry x="-214" y="330" width="20" height="20" as="geometry" />
        </mxCell>
        <mxCell id="kTvp0TokoopNqMNdhtiS-15" value="" style="html=1;verticalLabelPosition=bottom;align=center;labelBackgroundColor=#ffffff;verticalAlign=top;strokeWidth=2;strokeColor=#0080F0;shadow=0;dashed=0;shape=mxgraph.ios7.icons.trashcan;" parent="1" vertex="1">
          <mxGeometry x="-214" y="430" width="20" height="20" as="geometry" />
        </mxCell>
        <mxCell id="kTvp0TokoopNqMNdhtiS-16" value="" style="html=1;verticalLabelPosition=bottom;align=center;labelBackgroundColor=#ffffff;verticalAlign=top;strokeWidth=2;strokeColor=#0080F0;shadow=0;dashed=0;shape=mxgraph.ios7.icons.trashcan;" parent="1" vertex="1">
          <mxGeometry x="-210" y="475" width="20" height="20" as="geometry" />
        </mxCell>
        <mxCell id="kTvp0TokoopNqMNdhtiS-17" value="" style="html=1;verticalLabelPosition=bottom;align=center;labelBackgroundColor=#ffffff;verticalAlign=top;strokeWidth=2;strokeColor=#0080F0;shadow=0;dashed=0;shape=mxgraph.ios7.icons.trashcan;" parent="1" vertex="1">
          <mxGeometry x="-210" y="520" width="20" height="20" as="geometry" />
        </mxCell>
        <mxCell id="kTvp0TokoopNqMNdhtiS-18" value="" style="html=1;verticalLabelPosition=bottom;align=center;labelBackgroundColor=#ffffff;verticalAlign=top;strokeWidth=2;strokeColor=#0080F0;shadow=0;dashed=0;shape=mxgraph.ios7.icons.trashcan;" parent="1" vertex="1">
          <mxGeometry x="-210" y="580" width="20" height="20" as="geometry" />
        </mxCell>
        <mxCell id="kTvp0TokoopNqMNdhtiS-19" value="" style="html=1;verticalLabelPosition=bottom;align=center;labelBackgroundColor=#ffffff;verticalAlign=top;strokeWidth=2;strokeColor=#0080F0;shadow=0;dashed=0;shape=mxgraph.ios7.icons.trashcan;" parent="1" vertex="1">
          <mxGeometry x="-214" y="388" width="20" height="20" as="geometry" />
        </mxCell>
        <mxCell id="kTvp0TokoopNqMNdhtiS-20" value="" style="sketch=0;outlineConnect=0;fontColor=#232F3E;gradientColor=none;fillColor=#7AA116;strokeColor=none;dashed=0;verticalLabelPosition=bottom;verticalAlign=top;align=center;html=1;fontSize=12;fontStyle=0;aspect=fixed;pointerEvents=1;shape=mxgraph.aws4.iot_over_the_air_update;" parent="1" vertex="1">
          <mxGeometry x="-270" y="325" width="28.48" height="23" as="geometry" />
        </mxCell>
        <mxCell id="kTvp0TokoopNqMNdhtiS-21" value="" style="sketch=0;outlineConnect=0;fontColor=#232F3E;gradientColor=none;fillColor=#7AA116;strokeColor=none;dashed=0;verticalLabelPosition=bottom;verticalAlign=top;align=center;html=1;fontSize=12;fontStyle=0;aspect=fixed;pointerEvents=1;shape=mxgraph.aws4.iot_over_the_air_update;" parent="1" vertex="1">
          <mxGeometry x="-269.07" y="427" width="28.48" height="23" as="geometry" />
        </mxCell>
        <mxCell id="kTvp0TokoopNqMNdhtiS-22" value="" style="sketch=0;outlineConnect=0;fontColor=#232F3E;gradientColor=none;fillColor=#7AA116;strokeColor=none;dashed=0;verticalLabelPosition=bottom;verticalAlign=top;align=center;html=1;fontSize=12;fontStyle=0;aspect=fixed;pointerEvents=1;shape=mxgraph.aws4.iot_over_the_air_update;" parent="1" vertex="1">
          <mxGeometry x="-268.14" y="473.5" width="28.48" height="23" as="geometry" />
        </mxCell>
        <mxCell id="kTvp0TokoopNqMNdhtiS-36" style="edgeStyle=orthogonalEdgeStyle;rounded=0;orthogonalLoop=1;jettySize=auto;html=1;" parent="1" source="kTvp0TokoopNqMNdhtiS-24" target="3FGUaxCZPwPqk6HE0NR3-5" edge="1">
          <mxGeometry relative="1" as="geometry">
            <Array as="points">
              <mxPoint x="-256" y="620" />
            </Array>
          </mxGeometry>
        </mxCell>
        <mxCell id="kTvp0TokoopNqMNdhtiS-24" value="" style="sketch=0;outlineConnect=0;fontColor=#232F3E;gradientColor=none;fillColor=#7AA116;strokeColor=none;dashed=0;verticalLabelPosition=bottom;verticalAlign=top;align=center;html=1;fontSize=12;fontStyle=0;aspect=fixed;pointerEvents=1;shape=mxgraph.aws4.iot_over_the_air_update;" parent="1" vertex="1">
          <mxGeometry x="-270" y="582" width="28.48" height="23" as="geometry" />
        </mxCell>
        <mxCell id="kTvp0TokoopNqMNdhtiS-25" value="" style="sketch=0;outlineConnect=0;fontColor=#232F3E;gradientColor=none;fillColor=#7AA116;strokeColor=none;dashed=0;verticalLabelPosition=bottom;verticalAlign=top;align=center;html=1;fontSize=12;fontStyle=0;aspect=fixed;pointerEvents=1;shape=mxgraph.aws4.iot_over_the_air_update;" parent="1" vertex="1">
          <mxGeometry x="-268.14" y="519.5" width="28.48" height="23" as="geometry" />
        </mxCell>
        <mxCell id="kTvp0TokoopNqMNdhtiS-26" value="" style="sketch=0;outlineConnect=0;fontColor=#232F3E;gradientColor=none;fillColor=#7AA116;strokeColor=none;dashed=0;verticalLabelPosition=bottom;verticalAlign=top;align=center;html=1;fontSize=12;fontStyle=0;aspect=fixed;pointerEvents=1;shape=mxgraph.aws4.iot_over_the_air_update;" parent="1" vertex="1">
          <mxGeometry x="-270" y="385.75" width="30.34" height="24.5" as="geometry" />
        </mxCell>
        <mxCell id="kTvp0TokoopNqMNdhtiS-32" value="&lt;div style=&quot;&quot;&gt;&lt;br&gt;&lt;/div&gt;&lt;div style=&quot;&quot;&gt;&lt;br&gt;&lt;/div&gt;" style="rounded=1;whiteSpace=wrap;html=1;fillColor=#FFFFFF;strokeColor=#b85450;" parent="1" vertex="1">
          <mxGeometry x="-90" y="217.5" width="200" height="162.5" as="geometry" />
        </mxCell>
        <mxCell id="kTvp0TokoopNqMNdhtiS-33" value="" style="html=1;shadow=0;dashed=0;align=center;verticalAlign=middle;shape=mxgraph.arrows2.jumpInArrow;dy=15;dx=38;arrowHead=55;fillColor=#D60606;" parent="1" vertex="1">
          <mxGeometry x="-194" y="235" width="100" height="100" as="geometry" />
        </mxCell>
        <mxCell id="kTvp0TokoopNqMNdhtiS-34" value="" style="sketch=0;outlineConnect=0;fontColor=#232F3E;gradientColor=none;fillColor=#232F3D;strokeColor=none;dashed=0;verticalLabelPosition=bottom;verticalAlign=top;align=center;html=1;fontSize=12;fontStyle=0;aspect=fixed;pointerEvents=1;shape=mxgraph.aws4.alert;" parent="1" vertex="1">
          <mxGeometry x="-7.040000000000006" y="224.85" width="34.09" height="30.15" as="geometry" />
        </mxCell>
        <mxCell id="kTvp0TokoopNqMNdhtiS-40" value="&lt;font style=&quot;font-size: 15px;&quot;&gt;DESEJA APAGAR ISSO ?&lt;/font&gt;" style="text;html=1;align=center;verticalAlign=middle;whiteSpace=wrap;rounded=0;" parent="1" vertex="1">
          <mxGeometry x="-107.5" y="260" width="235" height="60" as="geometry" />
        </mxCell>
        <mxCell id="kTvp0TokoopNqMNdhtiS-42" value="&lt;font style=&quot;font-size: 15px;&quot;&gt;SIM&amp;nbsp;&lt;/font&gt;" style="shape=ext;double=1;rounded=0;whiteSpace=wrap;html=1;strokeColor=#B9E0A5;fontStyle=1" parent="1" vertex="1">
          <mxGeometry x="-80" y="325" width="70" height="30" as="geometry" />
        </mxCell>
        <mxCell id="kTvp0TokoopNqMNdhtiS-43" value="&lt;font style=&quot;font-size: 15px;&quot;&gt;NÃO&lt;/font&gt;" style="shape=ext;double=1;rounded=0;whiteSpace=wrap;html=1;strokeColor=#D60606;" parent="1" vertex="1">
          <mxGeometry x="10" y="325" width="70" height="30" as="geometry" />
        </mxCell>
        <mxCell id="kTvp0TokoopNqMNdhtiS-47" value="&lt;span style=&quot;font-size: 15px;&quot;&gt;SALVAR&lt;/span&gt;" style="shape=ext;double=1;rounded=0;whiteSpace=wrap;html=1;strokeColor=#B9E0A5;" parent="1" vertex="1">
          <mxGeometry x="285" y="730" width="140" height="30" as="geometry" />
        </mxCell>
        <mxCell id="kTvp0TokoopNqMNdhtiS-48" value="&lt;span style=&quot;font-size: 15px;&quot;&gt;CANCELAR&amp;nbsp;&lt;/span&gt;" style="shape=ext;double=1;rounded=0;whiteSpace=wrap;html=1;strokeColor=#D60606;" parent="1" vertex="1">
          <mxGeometry x="285" y="780" width="140" height="30" as="geometry" />
        </mxCell>
        <mxCell id="kTvp0TokoopNqMNdhtiS-49" value="" style="shape=ext;double=1;rounded=0;whiteSpace=wrap;html=1;align=right;fillColor=#FFFFFF;strokeColor=#E5CCFF;" parent="1" vertex="1">
          <mxGeometry x="210" y="500" width="300" height="30" as="geometry" />
        </mxCell>
        <mxCell id="kTvp0TokoopNqMNdhtiS-51" value="&lt;span style=&quot;font-size: 15px;&quot;&gt;&lt;b&gt;CPF (obrigatório):&lt;/b&gt;&lt;/span&gt;" style="text;html=1;align=center;verticalAlign=middle;whiteSpace=wrap;rounded=0;" parent="1" vertex="1">
          <mxGeometry x="195" y="470" width="165" height="30" as="geometry" />
        </mxCell>
        <mxCell id="kTvp0TokoopNqMNdhtiS-54" value="&lt;div style=&quot;&quot;&gt;&lt;br&gt;&lt;/div&gt;&lt;div style=&quot;&quot;&gt;&lt;br&gt;&lt;/div&gt;" style="rounded=1;whiteSpace=wrap;html=1;fillColor=#FFFFFF;strokeColor=#b85450;" parent="1" vertex="1">
          <mxGeometry x="635" y="790" width="200" height="162.5" as="geometry" />
        </mxCell>
        <mxCell id="kTvp0TokoopNqMNdhtiS-55" value="" style="sketch=0;outlineConnect=0;fontColor=#232F3E;gradientColor=none;fillColor=#232F3D;strokeColor=none;dashed=0;verticalLabelPosition=bottom;verticalAlign=top;align=center;html=1;fontSize=12;fontStyle=0;aspect=fixed;pointerEvents=1;shape=mxgraph.aws4.alert;" parent="1" vertex="1">
          <mxGeometry x="715.9100000000001" y="797.35" width="34.09" height="30.15" as="geometry" />
        </mxCell>
        <mxCell id="kTvp0TokoopNqMNdhtiS-56" value="&lt;font style=&quot;font-size: 15px;&quot;&gt;SIM&amp;nbsp;&lt;/font&gt;" style="shape=ext;double=1;rounded=0;whiteSpace=wrap;html=1;strokeColor=#B9E0A5;fontStyle=1" parent="1" vertex="1">
          <mxGeometry x="660" y="897.5" width="70" height="30" as="geometry" />
        </mxCell>
        <mxCell id="kTvp0TokoopNqMNdhtiS-57" value="&lt;font style=&quot;font-size: 15px;&quot;&gt;NÃO&lt;/font&gt;" style="shape=ext;double=1;rounded=0;whiteSpace=wrap;html=1;strokeColor=#D60606;" parent="1" vertex="1">
          <mxGeometry x="750" y="897.5" width="70" height="30" as="geometry" />
        </mxCell>
        <mxCell id="kTvp0TokoopNqMNdhtiS-58" style="edgeStyle=orthogonalEdgeStyle;rounded=0;orthogonalLoop=1;jettySize=auto;html=1;entryX=0.381;entryY=-0.018;entryDx=0;entryDy=0;entryPerimeter=0;" parent="1" source="kTvp0TokoopNqMNdhtiS-47" target="kTvp0TokoopNqMNdhtiS-54" edge="1">
          <mxGeometry relative="1" as="geometry" />
        </mxCell>
        <mxCell id="kTvp0TokoopNqMNdhtiS-59" value="&lt;font style=&quot;font-size: 15px;&quot;&gt;DESEJA SALVAR ISSO ?&lt;/font&gt;" style="text;html=1;align=center;verticalAlign=middle;whiteSpace=wrap;rounded=0;" parent="1" vertex="1">
          <mxGeometry x="635" y="827.5" width="215" height="60" as="geometry" />
        </mxCell>
        <mxCell id="kTvp0TokoopNqMNdhtiS-60" value="&lt;br&gt;&lt;h5 style=&quot;forced-color-adjust: none; color: rgb(0, 0, 0); font-family: Helvetica; font-style: normal; font-variant-ligatures: normal; font-variant-caps: normal; letter-spacing: normal; orphans: 2; text-align: center; text-indent: 0px; text-transform: none; widows: 2; word-spacing: 0px; -webkit-text-stroke-width: 0px; white-space: normal; background-color: rgb(251, 251, 251); text-decoration-thickness: initial; text-decoration-style: initial; text-decoration-color: initial;&quot;&gt;&lt;br&gt;&lt;/h5&gt;" style="shape=ext;double=1;rounded=0;whiteSpace=wrap;html=1;fillColor=#9021FF;strokeColor=#9021FF;shadow=1;glass=1;gradientColor=#221e25;gradientDirection=north;" parent="1" vertex="1">
          <mxGeometry x="1892.5" y="187.5" width="840" height="515" as="geometry" />
        </mxCell>
        <mxCell id="kTvp0TokoopNqMNdhtiS-62" value="" style="shape=ext;double=1;rounded=0;whiteSpace=wrap;html=1;align=right;fillColor=#FFFFFF;strokeColor=#E5CCFF;" parent="1" vertex="1">
          <mxGeometry x="1961.5" y="366" width="300" height="30" as="geometry" />
        </mxCell>
        <mxCell id="kTvp0TokoopNqMNdhtiS-63" value="(&amp;nbsp; &amp;nbsp;)" style="shape=ext;double=1;rounded=0;whiteSpace=wrap;html=1;align=left;strokeColor=#E5CCFF;" parent="1" vertex="1">
          <mxGeometry x="2002.5" y="492" width="220" height="30" as="geometry" />
        </mxCell>
        <mxCell id="kTvp0TokoopNqMNdhtiS-64" value="" style="shape=ext;double=1;rounded=0;whiteSpace=wrap;html=1;align=left;strokeColor=#E5CCFF;" parent="1" vertex="1">
          <mxGeometry x="2520" y="370" width="70" height="30" as="geometry" />
        </mxCell>
        <mxCell id="kTvp0TokoopNqMNdhtiS-65" value="" style="shape=ext;double=1;rounded=0;whiteSpace=wrap;html=1;align=left;strokeColor=#E5CCFF;" parent="1" vertex="1">
          <mxGeometry x="2342.5" y="366.5" width="70" height="30" as="geometry" />
        </mxCell>
        <mxCell id="kTvp0TokoopNqMNdhtiS-66" value="" style="shape=ext;double=1;rounded=0;whiteSpace=wrap;html=1;align=left;strokeColor=#E5CCFF;" parent="1" vertex="1">
          <mxGeometry x="2432.5" y="366.5" width="70" height="30" as="geometry" />
        </mxCell>
        <mxCell id="kTvp0TokoopNqMNdhtiS-67" value="&lt;b style=&quot;&quot;&gt;&lt;font style=&quot;font-size: 15px;&quot;&gt;&amp;nbsp;Celular (obrigatório):&lt;/font&gt;&lt;/b&gt;" style="text;html=1;align=center;verticalAlign=middle;whiteSpace=wrap;rounded=0;" parent="1" vertex="1">
          <mxGeometry x="1990" y="467" width="195" height="20" as="geometry" />
        </mxCell>
        <mxCell id="kTvp0TokoopNqMNdhtiS-139" style="edgeStyle=orthogonalEdgeStyle;rounded=0;orthogonalLoop=1;jettySize=auto;html=1;" parent="1" source="kTvp0TokoopNqMNdhtiS-68" target="kTvp0TokoopNqMNdhtiS-133" edge="1">
          <mxGeometry relative="1" as="geometry">
            <Array as="points">
              <mxPoint x="2153" y="810" />
            </Array>
          </mxGeometry>
        </mxCell>
        <mxCell id="kTvp0TokoopNqMNdhtiS-68" value="&lt;span style=&quot;font-size: 20px;&quot;&gt;&lt;b&gt;SALVAR&lt;/b&gt;&lt;/span&gt;" style="shape=ext;double=1;rounded=0;whiteSpace=wrap;html=1;align=left;fillColor=#E5CCFF;" parent="1" vertex="1">
          <mxGeometry x="2082.5" y="600" width="140" height="30" as="geometry" />
        </mxCell>
        <mxCell id="kTvp0TokoopNqMNdhtiS-162" style="edgeStyle=orthogonalEdgeStyle;rounded=0;orthogonalLoop=1;jettySize=auto;html=1;" parent="1" source="kTvp0TokoopNqMNdhtiS-69" edge="1">
          <mxGeometry relative="1" as="geometry">
            <mxPoint x="2450" y="730" as="targetPoint" />
          </mxGeometry>
        </mxCell>
        <mxCell id="kTvp0TokoopNqMNdhtiS-69" value="&lt;span style=&quot;font-size: 20px;&quot;&gt;&lt;b&gt;APAGAR&lt;/b&gt;&lt;/span&gt;" style="shape=ext;double=1;rounded=0;whiteSpace=wrap;html=1;align=left;fillColor=#E5CCFF;" parent="1" vertex="1">
          <mxGeometry x="2380" y="600" width="140" height="30" as="geometry" />
        </mxCell>
        <mxCell id="kTvp0TokoopNqMNdhtiS-70" value="&lt;h5&gt;&lt;b style=&quot;&quot;&gt;&lt;font style=&quot;font-size: 15px;&quot;&gt;Nome completo (obrigatório):&lt;/font&gt;&lt;/b&gt;&lt;/h5&gt;" style="text;html=1;align=center;verticalAlign=middle;whiteSpace=wrap;rounded=0;" parent="1" vertex="1">
          <mxGeometry x="1940" y="353" width="240" as="geometry" />
        </mxCell>
        <mxCell id="kTvp0TokoopNqMNdhtiS-71" value="&lt;font size=&quot;1&quot; style=&quot;&quot;&gt;&lt;b style=&quot;font-size: 15px;&quot;&gt;Data de nascimento (obrigatório)&lt;/b&gt;&lt;/font&gt;" style="text;html=1;align=center;verticalAlign=middle;whiteSpace=wrap;rounded=0;" parent="1" vertex="1">
          <mxGeometry x="2340" y="348" width="250" height="10" as="geometry" />
        </mxCell>
        <mxCell id="kTvp0TokoopNqMNdhtiS-86" value="&lt;h5&gt;&lt;span style=&quot;font-size: 15px;&quot;&gt;CPF (obrigatório):&lt;/span&gt;&lt;/h5&gt;" style="text;html=1;align=center;verticalAlign=middle;whiteSpace=wrap;rounded=0;" parent="1" vertex="1">
          <mxGeometry x="2300" y="467" width="240" height="25" as="geometry" />
        </mxCell>
        <mxCell id="kTvp0TokoopNqMNdhtiS-87" value="" style="shape=ext;double=1;rounded=0;whiteSpace=wrap;html=1;align=right;fillColor=#FFFFFF;strokeColor=#E5CCFF;" parent="1" vertex="1">
          <mxGeometry x="2342.5" y="493.5" width="260" height="30" as="geometry" />
        </mxCell>
        <mxCell id="kTvp0TokoopNqMNdhtiS-89" value="&lt;b&gt;&lt;font style=&quot;font-size: 30px;&quot;&gt;CLIENTE&amp;nbsp;&lt;/font&gt;&lt;/b&gt;" style="text;html=1;align=center;verticalAlign=middle;whiteSpace=wrap;rounded=0;" parent="1" vertex="1">
          <mxGeometry x="1020" y="250" width="260" height="30" as="geometry" />
        </mxCell>
        <mxCell id="kTvp0TokoopNqMNdhtiS-90" value="" style="shape=ext;double=1;rounded=0;whiteSpace=wrap;html=1;align=right;fillColor=#FFFFFF;strokeColor=#E5CCFF;" parent="1" vertex="1">
          <mxGeometry x="1040" y="310" width="210" height="30" as="geometry" />
        </mxCell>
        <mxCell id="kTvp0TokoopNqMNdhtiS-91" value="" style="shape=ext;double=1;rounded=0;whiteSpace=wrap;html=1;align=right;fillColor=#FFFFFF;strokeColor=#E5CCFF;" parent="1" vertex="1">
          <mxGeometry x="1300" y="310" width="40" height="30" as="geometry" />
        </mxCell>
        <mxCell id="kTvp0TokoopNqMNdhtiS-92" value="" style="sketch=0;outlineConnect=0;fontColor=#232F3E;gradientColor=none;fillColor=#232F3D;strokeColor=none;dashed=0;verticalLabelPosition=bottom;verticalAlign=top;align=center;html=1;fontSize=12;fontStyle=0;aspect=fixed;pointerEvents=1;shape=mxgraph.aws4.magnifying_glass_2;" parent="1" vertex="1">
          <mxGeometry x="1306.01" y="313" width="24.99" height="24.99" as="geometry" />
        </mxCell>
        <mxCell id="kTvp0TokoopNqMNdhtiS-93" value="" style="shape=ext;double=1;rounded=0;whiteSpace=wrap;html=1;align=right;fillColor=#FFFFFF;strokeColor=#E5CCFF;" parent="1" vertex="1">
          <mxGeometry x="901" y="366.5" width="430" height="30" as="geometry" />
        </mxCell>
        <mxCell id="kTvp0TokoopNqMNdhtiS-94" value="" style="shape=ext;double=1;rounded=0;whiteSpace=wrap;html=1;align=right;fillColor=#FFFFFF;strokeColor=#E5CCFF;" parent="1" vertex="1">
          <mxGeometry x="901" y="423.5" width="430" height="30" as="geometry" />
        </mxCell>
        <mxCell id="kTvp0TokoopNqMNdhtiS-95" value="" style="shape=ext;double=1;rounded=0;whiteSpace=wrap;html=1;align=right;fillColor=#FFFFFF;strokeColor=#E5CCFF;" parent="1" vertex="1">
          <mxGeometry x="901" y="473.5" width="430" height="30" as="geometry" />
        </mxCell>
        <mxCell id="kTvp0TokoopNqMNdhtiS-96" value="" style="shape=ext;double=1;rounded=0;whiteSpace=wrap;html=1;align=right;fillColor=#FFFFFF;strokeColor=#E5CCFF;" parent="1" vertex="1">
          <mxGeometry x="901" y="534" width="430" height="30" as="geometry" />
        </mxCell>
        <mxCell id="yFkiZpRgv-K4aqW7YuBv-1" style="edgeStyle=orthogonalEdgeStyle;rounded=0;orthogonalLoop=1;jettySize=auto;html=1;entryX=-0.004;entryY=0.869;entryDx=0;entryDy=0;entryPerimeter=0;" parent="1" source="kTvp0TokoopNqMNdhtiS-99" target="kTvp0TokoopNqMNdhtiS-60" edge="1">
          <mxGeometry relative="1" as="geometry">
            <mxPoint x="1900" y="640" as="targetPoint" />
          </mxGeometry>
        </mxCell>
        <mxCell id="kTvp0TokoopNqMNdhtiS-99" value="&lt;font style=&quot;font-size: 25px;&quot;&gt;+&lt;/font&gt;" style="shape=ext;double=1;rounded=0;whiteSpace=wrap;html=1;align=center;fillColor=#FFFFFF;strokeColor=#E5CCFF;" parent="1" vertex="1">
          <mxGeometry x="1490" y="620" width="30" height="30" as="geometry" />
        </mxCell>
        <mxCell id="kTvp0TokoopNqMNdhtiS-100" value="" style="shape=ext;double=1;rounded=0;whiteSpace=wrap;html=1;align=right;fillColor=#FFFFFF;strokeColor=#E5CCFF;" parent="1" vertex="1">
          <mxGeometry x="1410" y="370" width="40" height="30" as="geometry" />
        </mxCell>
        <mxCell id="kTvp0TokoopNqMNdhtiS-101" value="" style="shape=ext;double=1;rounded=0;whiteSpace=wrap;html=1;align=right;fillColor=#FFFFFF;strokeColor=#E5CCFF;" parent="1" vertex="1">
          <mxGeometry x="1491.1000000000001" y="540" width="40" height="30" as="geometry" />
        </mxCell>
        <mxCell id="kTvp0TokoopNqMNdhtiS-102" value="" style="shape=ext;double=1;rounded=0;whiteSpace=wrap;html=1;align=right;fillColor=#FFFFFF;strokeColor=#E5CCFF;" parent="1" vertex="1">
          <mxGeometry x="1491.1" y="488.5" width="40" height="30" as="geometry" />
        </mxCell>
        <mxCell id="kTvp0TokoopNqMNdhtiS-103" value="" style="shape=ext;double=1;rounded=0;whiteSpace=wrap;html=1;align=right;fillColor=#FFFFFF;strokeColor=#E5CCFF;" parent="1" vertex="1">
          <mxGeometry x="1407.17" y="534" width="40" height="30" as="geometry" />
        </mxCell>
        <mxCell id="kTvp0TokoopNqMNdhtiS-104" value="" style="shape=ext;double=1;rounded=0;whiteSpace=wrap;html=1;align=right;fillColor=#FFFFFF;strokeColor=#E5CCFF;" parent="1" vertex="1">
          <mxGeometry x="1409" y="487" width="40" height="30" as="geometry" />
        </mxCell>
        <mxCell id="kTvp0TokoopNqMNdhtiS-105" value="" style="shape=ext;double=1;rounded=0;whiteSpace=wrap;html=1;align=right;fillColor=#FFFFFF;strokeColor=#E5CCFF;" parent="1" vertex="1">
          <mxGeometry x="1409" y="427" width="40" height="30" as="geometry" />
        </mxCell>
        <mxCell id="kTvp0TokoopNqMNdhtiS-112" value="" style="sketch=0;outlineConnect=0;fontColor=#232F3E;gradientColor=none;fillColor=#7AA116;strokeColor=none;dashed=0;verticalLabelPosition=bottom;verticalAlign=top;align=center;html=1;fontSize=12;fontStyle=0;aspect=fixed;pointerEvents=1;shape=mxgraph.aws4.iot_over_the_air_update;" parent="1" vertex="1">
          <mxGeometry x="1415.76" y="373.5" width="28.48" height="23" as="geometry" />
        </mxCell>
        <mxCell id="kTvp0TokoopNqMNdhtiS-113" value="" style="sketch=0;outlineConnect=0;fontColor=#232F3E;gradientColor=none;fillColor=#7AA116;strokeColor=none;dashed=0;verticalLabelPosition=bottom;verticalAlign=top;align=center;html=1;fontSize=12;fontStyle=0;aspect=fixed;pointerEvents=1;shape=mxgraph.aws4.iot_over_the_air_update;" parent="1" vertex="1">
          <mxGeometry x="1414.76" y="492" width="28.48" height="23" as="geometry" />
        </mxCell>
        <mxCell id="kTvp0TokoopNqMNdhtiS-140" style="edgeStyle=orthogonalEdgeStyle;rounded=0;orthogonalLoop=1;jettySize=auto;html=1;" parent="1" source="kTvp0TokoopNqMNdhtiS-114" target="kTvp0TokoopNqMNdhtiS-60" edge="1">
          <mxGeometry relative="1" as="geometry">
            <Array as="points">
              <mxPoint x="1429" y="610" />
            </Array>
          </mxGeometry>
        </mxCell>
        <mxCell id="kTvp0TokoopNqMNdhtiS-114" value="" style="sketch=0;outlineConnect=0;fontColor=#232F3E;gradientColor=none;fillColor=#7AA116;strokeColor=none;dashed=0;verticalLabelPosition=bottom;verticalAlign=top;align=center;html=1;fontSize=12;fontStyle=0;aspect=fixed;pointerEvents=1;shape=mxgraph.aws4.iot_over_the_air_update;" parent="1" vertex="1">
          <mxGeometry x="1414.7600000000002" y="537.5" width="28.48" height="23" as="geometry" />
        </mxCell>
        <mxCell id="kTvp0TokoopNqMNdhtiS-117" value="" style="sketch=0;outlineConnect=0;fontColor=#232F3E;gradientColor=none;fillColor=#7AA116;strokeColor=none;dashed=0;verticalLabelPosition=bottom;verticalAlign=top;align=center;html=1;fontSize=12;fontStyle=0;aspect=fixed;pointerEvents=1;shape=mxgraph.aws4.iot_over_the_air_update;" parent="1" vertex="1">
          <mxGeometry x="1412" y="430.5" width="30.34" height="24.5" as="geometry" />
        </mxCell>
        <mxCell id="kTvp0TokoopNqMNdhtiS-119" value="" style="shape=ext;double=1;rounded=0;whiteSpace=wrap;html=1;align=right;fillColor=#FFFFFF;strokeColor=#E5CCFF;" parent="1" vertex="1">
          <mxGeometry x="1491.1" y="427.75" width="40" height="30" as="geometry" />
        </mxCell>
        <mxCell id="kTvp0TokoopNqMNdhtiS-120" value="" style="shape=ext;double=1;rounded=0;whiteSpace=wrap;html=1;align=right;fillColor=#FFFFFF;strokeColor=#E5CCFF;" parent="1" vertex="1">
          <mxGeometry x="1491.1" y="370" width="40" height="30" as="geometry" />
        </mxCell>
        <mxCell id="kTvp0TokoopNqMNdhtiS-121" value="" style="html=1;verticalLabelPosition=bottom;align=center;labelBackgroundColor=#ffffff;verticalAlign=top;strokeWidth=2;strokeColor=#0080F0;shadow=0;dashed=0;shape=mxgraph.ios7.icons.trashcan;" parent="1" vertex="1">
          <mxGeometry x="1496.1" y="376.5" width="23.9" height="20" as="geometry" />
        </mxCell>
        <mxCell id="kTvp0TokoopNqMNdhtiS-122" value="" style="html=1;verticalLabelPosition=bottom;align=center;labelBackgroundColor=#ffffff;verticalAlign=top;strokeWidth=2;strokeColor=#0080F0;shadow=0;dashed=0;shape=mxgraph.ios7.icons.trashcan;" parent="1" vertex="1">
          <mxGeometry x="1497.1999999999998" y="435" width="23.9" height="20" as="geometry" />
        </mxCell>
        <mxCell id="kTvp0TokoopNqMNdhtiS-123" value="" style="html=1;verticalLabelPosition=bottom;align=center;labelBackgroundColor=#ffffff;verticalAlign=top;strokeWidth=2;strokeColor=#0080F0;shadow=0;dashed=0;shape=mxgraph.ios7.icons.trashcan;" parent="1" vertex="1">
          <mxGeometry x="1499.1499999999999" y="493.5" width="23.9" height="20" as="geometry" />
        </mxCell>
        <mxCell id="kTvp0TokoopNqMNdhtiS-124" value="" style="html=1;verticalLabelPosition=bottom;align=center;labelBackgroundColor=#ffffff;verticalAlign=top;strokeWidth=2;strokeColor=#0080F0;shadow=0;dashed=0;shape=mxgraph.ios7.icons.trashcan;" parent="1" vertex="1">
          <mxGeometry x="1499.1499999999999" y="544" width="23.9" height="20" as="geometry" />
        </mxCell>
        <mxCell id="kTvp0TokoopNqMNdhtiS-127" value="&lt;div style=&quot;&quot;&gt;&lt;br&gt;&lt;/div&gt;&lt;div style=&quot;&quot;&gt;&lt;br&gt;&lt;/div&gt;" style="rounded=1;whiteSpace=wrap;html=1;fillColor=#FFFFFF;strokeColor=#b85450;" parent="1" vertex="1">
          <mxGeometry x="1610" y="195.5" width="200" height="162.5" as="geometry" />
        </mxCell>
        <mxCell id="kTvp0TokoopNqMNdhtiS-128" value="" style="sketch=0;outlineConnect=0;fontColor=#232F3E;gradientColor=none;fillColor=#232F3D;strokeColor=none;dashed=0;verticalLabelPosition=bottom;verticalAlign=top;align=center;html=1;fontSize=12;fontStyle=0;aspect=fixed;pointerEvents=1;shape=mxgraph.aws4.alert;" parent="1" vertex="1">
          <mxGeometry x="1690.91" y="202.85000000000002" width="34.09" height="30.15" as="geometry" />
        </mxCell>
        <mxCell id="kTvp0TokoopNqMNdhtiS-129" value="&lt;font style=&quot;font-size: 15px;&quot;&gt;SIM&amp;nbsp;&lt;/font&gt;" style="shape=ext;double=1;rounded=0;whiteSpace=wrap;html=1;strokeColor=#B9E0A5;fontStyle=1" parent="1" vertex="1">
          <mxGeometry x="1635" y="303" width="70" height="30" as="geometry" />
        </mxCell>
        <mxCell id="kTvp0TokoopNqMNdhtiS-130" value="&lt;font style=&quot;font-size: 15px;&quot;&gt;NÃO&lt;/font&gt;" style="shape=ext;double=1;rounded=0;whiteSpace=wrap;html=1;strokeColor=#D60606;" parent="1" vertex="1">
          <mxGeometry x="1725" y="303" width="70" height="30" as="geometry" />
        </mxCell>
        <mxCell id="kTvp0TokoopNqMNdhtiS-131" value="&lt;font style=&quot;font-size: 15px;&quot;&gt;DESEJA APAGAR ISSO ?&lt;/font&gt;" style="text;html=1;align=center;verticalAlign=middle;whiteSpace=wrap;rounded=0;" parent="1" vertex="1">
          <mxGeometry x="1610" y="233" width="215" height="60" as="geometry" />
        </mxCell>
        <mxCell id="kTvp0TokoopNqMNdhtiS-132" style="edgeStyle=orthogonalEdgeStyle;rounded=0;orthogonalLoop=1;jettySize=auto;html=1;entryX=0.3;entryY=1.012;entryDx=0;entryDy=0;entryPerimeter=0;" parent="1" source="kTvp0TokoopNqMNdhtiS-120" target="kTvp0TokoopNqMNdhtiS-127" edge="1">
          <mxGeometry relative="1" as="geometry" />
        </mxCell>
        <mxCell id="kTvp0TokoopNqMNdhtiS-133" value="&lt;div style=&quot;&quot;&gt;&lt;br&gt;&lt;/div&gt;&lt;div style=&quot;&quot;&gt;&lt;br&gt;&lt;/div&gt;" style="rounded=1;whiteSpace=wrap;html=1;fillColor=#FFFFFF;strokeColor=#b85450;" parent="1" vertex="1">
          <mxGeometry x="1892.5" y="740" width="200" height="162.5" as="geometry" />
        </mxCell>
        <mxCell id="kTvp0TokoopNqMNdhtiS-134" value="" style="sketch=0;outlineConnect=0;fontColor=#232F3E;gradientColor=none;fillColor=#232F3D;strokeColor=none;dashed=0;verticalLabelPosition=bottom;verticalAlign=top;align=center;html=1;fontSize=12;fontStyle=0;aspect=fixed;pointerEvents=1;shape=mxgraph.aws4.alert;" parent="1" vertex="1">
          <mxGeometry x="1973.41" y="747.35" width="34.09" height="30.15" as="geometry" />
        </mxCell>
        <mxCell id="kTvp0TokoopNqMNdhtiS-135" value="&lt;font style=&quot;font-size: 15px;&quot;&gt;SIM&amp;nbsp;&lt;/font&gt;" style="shape=ext;double=1;rounded=0;whiteSpace=wrap;html=1;strokeColor=#B9E0A5;fontStyle=1" parent="1" vertex="1">
          <mxGeometry x="1917.5" y="847.5" width="70" height="30" as="geometry" />
        </mxCell>
        <mxCell id="kTvp0TokoopNqMNdhtiS-136" value="&lt;font style=&quot;font-size: 15px;&quot;&gt;NÃO&lt;/font&gt;" style="shape=ext;double=1;rounded=0;whiteSpace=wrap;html=1;strokeColor=#D60606;" parent="1" vertex="1">
          <mxGeometry x="2007.5" y="847.5" width="70" height="30" as="geometry" />
        </mxCell>
        <mxCell id="kTvp0TokoopNqMNdhtiS-137" value="&lt;font style=&quot;font-size: 15px;&quot;&gt;DESEJA SALVAR ISSO ?&lt;/font&gt;" style="text;html=1;align=center;verticalAlign=middle;whiteSpace=wrap;rounded=0;" parent="1" vertex="1">
          <mxGeometry x="1892.5" y="777.5" width="215" height="60" as="geometry" />
        </mxCell>
        <mxCell id="kTvp0TokoopNqMNdhtiS-141" value="&lt;div style=&quot;&quot;&gt;&lt;br&gt;&lt;/div&gt;&lt;div style=&quot;&quot;&gt;&lt;br&gt;&lt;/div&gt;" style="rounded=1;whiteSpace=wrap;html=1;fillColor=#FFFFFF;strokeColor=#b85450;arcSize=20;" parent="1" vertex="1">
          <mxGeometry x="930" y="760" width="200" height="162.5" as="geometry" />
        </mxCell>
        <mxCell id="kTvp0TokoopNqMNdhtiS-142" value="" style="sketch=0;outlineConnect=0;fontColor=#232F3E;gradientColor=none;fillColor=#232F3D;strokeColor=none;dashed=0;verticalLabelPosition=bottom;verticalAlign=top;align=center;html=1;fontSize=12;fontStyle=0;aspect=fixed;pointerEvents=1;shape=mxgraph.aws4.alert;" parent="1" vertex="1">
          <mxGeometry x="983.4100000000001" y="777.5" width="34.09" height="30.15" as="geometry" />
        </mxCell>
        <mxCell id="kTvp0TokoopNqMNdhtiS-143" value="&lt;font style=&quot;font-size: 15px;&quot;&gt;SIM&amp;nbsp;&lt;/font&gt;" style="shape=ext;double=1;rounded=0;whiteSpace=wrap;html=1;strokeColor=#B9E0A5;fontStyle=1" parent="1" vertex="1">
          <mxGeometry x="947.5" y="857.5" width="70" height="30" as="geometry" />
        </mxCell>
        <mxCell id="kTvp0TokoopNqMNdhtiS-144" value="&lt;font style=&quot;font-size: 15px;&quot;&gt;NÃO&lt;/font&gt;" style="shape=ext;double=1;rounded=0;whiteSpace=wrap;html=1;strokeColor=#D60606;" parent="1" vertex="1">
          <mxGeometry x="1037.5" y="857.5" width="70" height="30" as="geometry" />
        </mxCell>
        <mxCell id="kTvp0TokoopNqMNdhtiS-145" value="&lt;font style=&quot;font-size: 15px;&quot;&gt;DESEJA SALVAR ISSO ?&lt;/font&gt;" style="text;html=1;align=center;verticalAlign=middle;whiteSpace=wrap;rounded=0;" parent="1" vertex="1">
          <mxGeometry x="930" y="791.25" width="215" height="60" as="geometry" />
        </mxCell>
        <mxCell id="kTvp0TokoopNqMNdhtiS-147" value="&lt;div style=&quot;&quot;&gt;&lt;br&gt;&lt;/div&gt;&lt;div style=&quot;&quot;&gt;&lt;br&gt;&lt;/div&gt;" style="rounded=1;whiteSpace=wrap;html=1;fillColor=#FFFFFF;strokeColor=#b85450;arcSize=23;" parent="1" vertex="1">
          <mxGeometry x="1225.3" y="776.25" width="200" height="162.5" as="geometry" />
        </mxCell>
        <mxCell id="kTvp0TokoopNqMNdhtiS-148" value="" style="sketch=0;outlineConnect=0;fontColor=#232F3E;gradientColor=none;fillColor=#232F3D;strokeColor=none;dashed=0;verticalLabelPosition=bottom;verticalAlign=top;align=center;html=1;fontSize=12;fontStyle=0;aspect=fixed;pointerEvents=1;shape=mxgraph.aws4.alert;direction=south;rotation=-90;" parent="1" vertex="1">
          <mxGeometry x="1307.98" y="778.03" width="30.15" height="34.09" as="geometry" />
        </mxCell>
        <mxCell id="kTvp0TokoopNqMNdhtiS-149" value="&lt;font style=&quot;font-size: 15px;&quot;&gt;SIM&amp;nbsp;&lt;/font&gt;" style="shape=ext;double=1;rounded=0;whiteSpace=wrap;html=1;strokeColor=#B9E0A5;fontStyle=1" parent="1" vertex="1">
          <mxGeometry x="1252.34" y="867.5" width="70" height="30" as="geometry" />
        </mxCell>
        <mxCell id="kTvp0TokoopNqMNdhtiS-150" value="&lt;font style=&quot;font-size: 15px;&quot;&gt;NÃO&lt;/font&gt;" style="shape=ext;double=1;rounded=0;whiteSpace=wrap;html=1;strokeColor=#D60606;" parent="1" vertex="1">
          <mxGeometry x="1342.34" y="867.5" width="70" height="30" as="geometry" />
        </mxCell>
        <mxCell id="kTvp0TokoopNqMNdhtiS-151" value="&lt;font style=&quot;font-size: 15px;&quot;&gt;DESEJA APAGAR ISSO ?&lt;/font&gt;" style="text;html=1;align=center;verticalAlign=middle;whiteSpace=wrap;rounded=0;" parent="1" vertex="1">
          <mxGeometry x="1219.84" y="797.5" width="215" height="60" as="geometry" />
        </mxCell>
        <mxCell id="kTvp0TokoopNqMNdhtiS-155" value="&lt;div style=&quot;&quot;&gt;&lt;br&gt;&lt;/div&gt;&lt;div style=&quot;&quot;&gt;&lt;br&gt;&lt;/div&gt;" style="rounded=1;whiteSpace=wrap;html=1;fillColor=#FFFFFF;strokeColor=#b85450;arcSize=30;" parent="1" vertex="1">
          <mxGeometry x="2360.7200000000003" y="747.5" width="200" height="162.5" as="geometry" />
        </mxCell>
        <mxCell id="kTvp0TokoopNqMNdhtiS-156" value="" style="sketch=0;outlineConnect=0;fontColor=#232F3E;gradientColor=none;fillColor=#232F3D;strokeColor=none;dashed=0;verticalLabelPosition=bottom;verticalAlign=top;align=center;html=1;fontSize=12;fontStyle=0;aspect=fixed;pointerEvents=1;shape=mxgraph.aws4.alert;direction=south;rotation=-90;" parent="1" vertex="1">
          <mxGeometry x="2445.6400000000003" y="761.78" width="30.15" height="34.09" as="geometry" />
        </mxCell>
        <mxCell id="kTvp0TokoopNqMNdhtiS-157" value="&lt;font style=&quot;font-size: 15px;&quot;&gt;SIM&amp;nbsp;&lt;/font&gt;" style="shape=ext;double=1;rounded=0;whiteSpace=wrap;html=1;strokeColor=#B9E0A5;fontStyle=1" parent="1" vertex="1">
          <mxGeometry x="2390" y="851.25" width="70" height="30" as="geometry" />
        </mxCell>
        <mxCell id="kTvp0TokoopNqMNdhtiS-158" value="&lt;font style=&quot;font-size: 15px;&quot;&gt;NÃO&lt;/font&gt;" style="shape=ext;double=1;rounded=0;whiteSpace=wrap;html=1;strokeColor=#D60606;" parent="1" vertex="1">
          <mxGeometry x="2480" y="851.25" width="70" height="30" as="geometry" />
        </mxCell>
        <mxCell id="kTvp0TokoopNqMNdhtiS-159" value="&lt;font style=&quot;font-size: 15px;&quot;&gt;DESEJA APAGAR ISSO ?&lt;/font&gt;" style="text;html=1;align=center;verticalAlign=middle;whiteSpace=wrap;rounded=0;" parent="1" vertex="1">
          <mxGeometry x="2357.5" y="781.25" width="215" height="60" as="geometry" />
        </mxCell>
        <mxCell id="ko6SWJjrerONbmw5JHpk-1" value="&lt;span style=&quot;font-size: 30px;&quot;&gt;&lt;b style=&quot;font-size: 20px;&quot;&gt;CADASTRO DE CLIENTE&amp;nbsp;&lt;/b&gt;&lt;/span&gt;" style="text;html=1;align=center;verticalAlign=middle;whiteSpace=wrap;rounded=0;" parent="1" vertex="1">
          <mxGeometry x="2132.5" y="224.85" width="360" height="30" as="geometry" />
        </mxCell>
      </root>
    </mxGraphModel>
  </diagram>
  <diagram id="b-ZiCJmraor4mhzwBT5-" name="Página-5">
    <mxGraphModel dx="2514" dy="920" grid="1" gridSize="10" guides="1" tooltips="1" connect="1" arrows="1" fold="1" page="1" pageScale="1" pageWidth="827" pageHeight="1169" math="0" shadow="0">
      <root>
        <mxCell id="0" />
        <mxCell id="1" parent="0" />
        <mxCell id="q9uv2R8bkkBvUifHGKTc-1" value="" style="shape=ext;double=1;rounded=1;whiteSpace=wrap;html=1;glass=1;shadow=0;fillColor=#F2C2DB;strokeColor=#9673a6;arcSize=14;" parent="1" vertex="1">
          <mxGeometry x="266" y="75" width="440" height="800" as="geometry" />
        </mxCell>
        <mxCell id="q9uv2R8bkkBvUifHGKTc-2" value="&lt;b&gt;&lt;font style=&quot;font-size: 20px;&quot;&gt;CADASTRO DE&amp;nbsp; FORNECEDOR&amp;nbsp;&amp;nbsp;&lt;/font&gt;&lt;/b&gt;" style="shape=ext;double=1;rounded=0;whiteSpace=wrap;html=1;" parent="1" vertex="1">
          <mxGeometry x="388" y="150" width="170" height="45" as="geometry" />
        </mxCell>
        <mxCell id="q9uv2R8bkkBvUifHGKTc-4" value="" style="shape=ext;double=1;rounded=0;whiteSpace=wrap;html=1;align=left;strokeColor=#E5CCFF;" parent="1" vertex="1">
          <mxGeometry x="386" y="302" width="60" height="20" as="geometry" />
        </mxCell>
        <mxCell id="q9uv2R8bkkBvUifHGKTc-22" value="&lt;h5&gt;&lt;br&gt;&lt;/h5&gt;" style="text;html=1;align=center;verticalAlign=middle;whiteSpace=wrap;rounded=0;" parent="1" vertex="1">
          <mxGeometry x="246" y="248" width="240" as="geometry" />
        </mxCell>
        <mxCell id="74uVaWAs7rmu4QM9XWdT-1" value="&lt;font style=&quot;font-size: 15px;&quot;&gt;&lt;b&gt;Código&lt;/b&gt;&lt;/font&gt;" style="text;html=1;align=center;verticalAlign=middle;whiteSpace=wrap;rounded=0;" parent="1" vertex="1">
          <mxGeometry x="290" y="297" width="70" height="30" as="geometry" />
        </mxCell>
        <mxCell id="qg4ihboaaTOZCx5tW6_u-1" value="&lt;span style=&quot;font-size: 15px;&quot;&gt;&lt;b&gt;CNJP/CPF&lt;/b&gt;&lt;/span&gt;" style="text;html=1;align=center;verticalAlign=middle;whiteSpace=wrap;rounded=0;" parent="1" vertex="1">
          <mxGeometry x="285" y="382.5" width="60" height="35" as="geometry" />
        </mxCell>
        <mxCell id="qg4ihboaaTOZCx5tW6_u-2" value="" style="shape=ext;double=1;rounded=0;whiteSpace=wrap;html=1;align=left;strokeColor=#E5CCFF;" parent="1" vertex="1">
          <mxGeometry x="401.88" y="356.25" width="120" height="20" as="geometry" />
        </mxCell>
        <mxCell id="qg4ihboaaTOZCx5tW6_u-3" value="&lt;span style=&quot;font-size: 15px;&quot;&gt;&lt;b&gt;Telefone:&lt;/b&gt;&lt;/span&gt;" style="text;html=1;align=center;verticalAlign=middle;whiteSpace=wrap;rounded=0;" parent="1" vertex="1">
          <mxGeometry x="280" y="435.5" width="60" height="30" as="geometry" />
        </mxCell>
        <mxCell id="qg4ihboaaTOZCx5tW6_u-5" value="" style="shape=ext;double=1;rounded=0;whiteSpace=wrap;html=1;align=left;strokeColor=#E5CCFF;" parent="1" vertex="1">
          <mxGeometry x="367" y="440" width="40" height="20" as="geometry" />
        </mxCell>
        <mxCell id="qg4ihboaaTOZCx5tW6_u-8" value="" style="shape=ext;double=1;rounded=0;whiteSpace=wrap;html=1;align=left;strokeColor=#E5CCFF;" parent="1" vertex="1">
          <mxGeometry x="415" y="440.5" width="120" height="20" as="geometry" />
        </mxCell>
        <mxCell id="qg4ihboaaTOZCx5tW6_u-9" value="&lt;span style=&quot;font-size: 15px;&quot;&gt;&lt;b&gt;Endereço&lt;/b&gt;&lt;/span&gt;" style="text;html=1;align=center;verticalAlign=middle;whiteSpace=wrap;rounded=0;" parent="1" vertex="1">
          <mxGeometry x="280" y="500" width="60" height="30" as="geometry" />
        </mxCell>
        <mxCell id="qg4ihboaaTOZCx5tW6_u-12" value="" style="shape=ext;double=1;rounded=0;whiteSpace=wrap;html=1;align=left;strokeColor=#E5CCFF;" parent="1" vertex="1">
          <mxGeometry x="360" y="505" width="170" height="20" as="geometry" />
        </mxCell>
        <mxCell id="qg4ihboaaTOZCx5tW6_u-15" value="" style="shape=ext;double=1;rounded=0;whiteSpace=wrap;html=1;align=left;strokeColor=#E5CCFF;" parent="1" vertex="1">
          <mxGeometry x="601" y="551.5" width="40" height="20" as="geometry" />
        </mxCell>
        <mxCell id="qg4ihboaaTOZCx5tW6_u-16" value="&lt;span style=&quot;font-size: 15px;&quot;&gt;&lt;b&gt;UF&lt;/b&gt;&lt;/span&gt;" style="text;html=1;align=center;verticalAlign=middle;whiteSpace=wrap;rounded=0;" parent="1" vertex="1">
          <mxGeometry x="526" y="546.5" width="70" height="25" as="geometry" />
        </mxCell>
        <mxCell id="qg4ihboaaTOZCx5tW6_u-17" value="" style="shape=ext;double=1;rounded=0;whiteSpace=wrap;html=1;align=left;strokeColor=#E5CCFF;" parent="1" vertex="1">
          <mxGeometry x="358" y="551.5" width="170" height="20" as="geometry" />
        </mxCell>
        <mxCell id="qg4ihboaaTOZCx5tW6_u-18" value="&lt;span style=&quot;font-size: 15px;&quot;&gt;&lt;b&gt;Município&lt;/b&gt;&lt;/span&gt;" style="text;html=1;align=center;verticalAlign=middle;whiteSpace=wrap;rounded=0;" parent="1" vertex="1">
          <mxGeometry x="281" y="544" width="60" height="30" as="geometry" />
        </mxCell>
        <mxCell id="qg4ihboaaTOZCx5tW6_u-19" value="" style="shape=ext;double=1;rounded=0;whiteSpace=wrap;html=1;align=left;strokeColor=#E5CCFF;" parent="1" vertex="1">
          <mxGeometry x="601" y="505" width="40" height="20" as="geometry" />
        </mxCell>
        <mxCell id="qg4ihboaaTOZCx5tW6_u-20" value="&lt;span style=&quot;font-size: 15px;&quot;&gt;&lt;b&gt;Nº&lt;/b&gt;&lt;/span&gt;" style="text;html=1;align=center;verticalAlign=middle;whiteSpace=wrap;rounded=0;" parent="1" vertex="1">
          <mxGeometry x="525" y="501" width="70" height="30" as="geometry" />
        </mxCell>
        <mxCell id="qg4ihboaaTOZCx5tW6_u-24" value="&lt;span style=&quot;font-size: 15px;&quot;&gt;&lt;b&gt;Razão social&lt;/b&gt;&lt;/span&gt;" style="text;html=1;align=center;verticalAlign=middle;whiteSpace=wrap;rounded=0;" parent="1" vertex="1">
          <mxGeometry x="266" y="350" width="120" height="30" as="geometry" />
        </mxCell>
        <mxCell id="qg4ihboaaTOZCx5tW6_u-25" value="" style="shape=ext;double=1;rounded=0;whiteSpace=wrap;html=1;align=left;strokeColor=#E5CCFF;" parent="1" vertex="1">
          <mxGeometry x="377" y="390" width="170" height="20" as="geometry" />
        </mxCell>
        <mxCell id="qg4ihboaaTOZCx5tW6_u-26" value="" style="shape=ext;double=1;rounded=0;whiteSpace=wrap;html=1;align=left;strokeColor=#E5CCFF;" parent="1" vertex="1">
          <mxGeometry x="348.5" y="657" width="45" height="30" as="geometry" />
        </mxCell>
        <mxCell id="qg4ihboaaTOZCx5tW6_u-27" value="" style="verticalLabelPosition=bottom;verticalAlign=top;html=1;shape=mxgraph.basic.tick;fillColor=#008F00;" parent="1" vertex="1">
          <mxGeometry x="358" y="661" width="30" height="20" as="geometry" />
        </mxCell>
        <mxCell id="qg4ihboaaTOZCx5tW6_u-28" value="&lt;span style=&quot;font-size: 15px;&quot;&gt;&lt;b&gt;Salvar&lt;/b&gt;&lt;/span&gt;" style="text;html=1;align=center;verticalAlign=middle;whiteSpace=wrap;rounded=0;" parent="1" vertex="1">
          <mxGeometry x="393.5" y="657" width="70" height="34" as="geometry" />
        </mxCell>
        <mxCell id="qg4ihboaaTOZCx5tW6_u-29" value="" style="shape=ext;double=1;rounded=0;whiteSpace=wrap;html=1;align=left;strokeColor=#E5CCFF;" parent="1" vertex="1">
          <mxGeometry x="514" y="660" width="41" height="30" as="geometry" />
        </mxCell>
        <mxCell id="0Lvd4Apdu9pohfa6FTHu-13" style="edgeStyle=orthogonalEdgeStyle;rounded=0;orthogonalLoop=1;jettySize=auto;html=1;exitX=0.5;exitY=0.29;exitDx=0;exitDy=0;exitPerimeter=0;entryX=0.5;entryY=0;entryDx=0;entryDy=0;" parent="1" source="qg4ihboaaTOZCx5tW6_u-30" target="qg4ihboaaTOZCx5tW6_u-29" edge="1">
          <mxGeometry relative="1" as="geometry" />
        </mxCell>
        <mxCell id="qg4ihboaaTOZCx5tW6_u-30" value="" style="verticalLabelPosition=bottom;verticalAlign=top;html=1;shape=mxgraph.basic.x;fillColor=#FF2121;" parent="1" vertex="1">
          <mxGeometry x="521.88" y="666" width="28.75" height="20" as="geometry" />
        </mxCell>
        <mxCell id="qg4ihboaaTOZCx5tW6_u-31" value="&lt;b style=&quot;&quot;&gt;&lt;font style=&quot;font-size: 15px;&quot;&gt;Apagar&lt;/font&gt;&lt;/b&gt;" style="text;html=1;align=center;verticalAlign=middle;whiteSpace=wrap;rounded=0;" parent="1" vertex="1">
          <mxGeometry x="566" y="659" width="60" height="30" as="geometry" />
        </mxCell>
        <mxCell id="dfyc_2F_Ddbk1cfzF7PH-1" value="" style="shape=ext;double=1;rounded=0;whiteSpace=wrap;html=1;fillColor=#FFCCE6;strokeColor=#b85450;shadow=1;glass=1;gradientDirection=south;" parent="1" vertex="1">
          <mxGeometry x="930" y="225.5" width="840" height="510" as="geometry" />
        </mxCell>
        <mxCell id="dfyc_2F_Ddbk1cfzF7PH-13" value="&lt;b&gt;&lt;font style=&quot;font-size: 20px;&quot;&gt;&amp;nbsp;FORNECEDOR&amp;nbsp;&amp;nbsp;&lt;/font&gt;&lt;/b&gt;" style="shape=ext;double=1;rounded=0;whiteSpace=wrap;html=1;" parent="1" vertex="1">
          <mxGeometry x="1310" y="250" width="170" height="30" as="geometry" />
        </mxCell>
        <mxCell id="dfyc_2F_Ddbk1cfzF7PH-14" value="" style="shape=ext;double=1;rounded=0;whiteSpace=wrap;html=1;align=left;strokeColor=#E5CCFF;" parent="1" vertex="1">
          <mxGeometry x="1094.5" y="350" width="60" height="20" as="geometry" />
        </mxCell>
        <mxCell id="dfyc_2F_Ddbk1cfzF7PH-15" value="&lt;h5&gt;&lt;br&gt;&lt;/h5&gt;" style="text;html=1;align=center;verticalAlign=middle;whiteSpace=wrap;rounded=0;" parent="1" vertex="1">
          <mxGeometry x="256" y="258" width="240" as="geometry" />
        </mxCell>
        <mxCell id="dfyc_2F_Ddbk1cfzF7PH-16" value="&lt;font style=&quot;font-size: 15px;&quot;&gt;&lt;b&gt;Código&lt;/b&gt;&lt;/font&gt;" style="text;html=1;align=center;verticalAlign=middle;whiteSpace=wrap;rounded=0;" parent="1" vertex="1">
          <mxGeometry x="1007.5" y="345" width="70" height="30" as="geometry" />
        </mxCell>
        <mxCell id="dfyc_2F_Ddbk1cfzF7PH-17" value="&lt;span style=&quot;font-size: 15px;&quot;&gt;&lt;b&gt;CNJP/CPF&lt;/b&gt;&lt;/span&gt;" style="text;html=1;align=center;verticalAlign=middle;whiteSpace=wrap;rounded=0;" parent="1" vertex="1">
          <mxGeometry x="1560" y="340" width="60" height="35" as="geometry" />
        </mxCell>
        <mxCell id="dfyc_2F_Ddbk1cfzF7PH-18" value="" style="shape=ext;double=1;rounded=0;whiteSpace=wrap;html=1;align=left;strokeColor=#E5CCFF;" parent="1" vertex="1">
          <mxGeometry x="1647" y="350" width="120" height="20" as="geometry" />
        </mxCell>
        <mxCell id="dfyc_2F_Ddbk1cfzF7PH-19" value="&lt;span style=&quot;font-size: 15px;&quot;&gt;&lt;b&gt;Telefone:&lt;/b&gt;&lt;/span&gt;" style="text;html=1;align=center;verticalAlign=middle;whiteSpace=wrap;rounded=0;" parent="1" vertex="1">
          <mxGeometry x="1260" y="376.25" width="60" height="32.5" as="geometry" />
        </mxCell>
        <mxCell id="dfyc_2F_Ddbk1cfzF7PH-20" value="" style="shape=ext;double=1;rounded=0;whiteSpace=wrap;html=1;align=left;strokeColor=#E5CCFF;" parent="1" vertex="1">
          <mxGeometry x="1345" y="382.5" width="40" height="20" as="geometry" />
        </mxCell>
        <mxCell id="dfyc_2F_Ddbk1cfzF7PH-21" value="" style="shape=ext;double=1;rounded=0;whiteSpace=wrap;html=1;align=left;strokeColor=#E5CCFF;" parent="1" vertex="1">
          <mxGeometry x="1410" y="382.5" width="120" height="20" as="geometry" />
        </mxCell>
        <mxCell id="dfyc_2F_Ddbk1cfzF7PH-22" value="&lt;span style=&quot;font-size: 15px;&quot;&gt;&lt;b&gt;Endereço&lt;/b&gt;&lt;/span&gt;" style="text;html=1;align=center;verticalAlign=middle;whiteSpace=wrap;rounded=0;" parent="1" vertex="1">
          <mxGeometry x="990" y="378.75" width="60" height="31.25" as="geometry" />
        </mxCell>
        <mxCell id="dfyc_2F_Ddbk1cfzF7PH-23" value="" style="shape=ext;double=1;rounded=0;whiteSpace=wrap;html=1;align=left;strokeColor=#E5CCFF;" parent="1" vertex="1">
          <mxGeometry x="1070" y="388.75" width="170" height="20" as="geometry" />
        </mxCell>
        <mxCell id="dfyc_2F_Ddbk1cfzF7PH-24" value="" style="shape=ext;double=1;rounded=0;whiteSpace=wrap;html=1;align=left;strokeColor=#E5CCFF;" parent="1" vertex="1">
          <mxGeometry x="1687" y="426" width="40" height="20" as="geometry" />
        </mxCell>
        <mxCell id="dfyc_2F_Ddbk1cfzF7PH-25" value="&lt;span style=&quot;font-size: 15px;&quot;&gt;&lt;b&gt;UF&lt;/b&gt;&lt;/span&gt;" style="text;html=1;align=center;verticalAlign=middle;whiteSpace=wrap;rounded=0;" parent="1" vertex="1">
          <mxGeometry x="1625" y="422.5" width="70" height="25" as="geometry" />
        </mxCell>
        <mxCell id="dfyc_2F_Ddbk1cfzF7PH-26" value="" style="shape=ext;double=1;rounded=0;whiteSpace=wrap;html=1;align=left;strokeColor=#E5CCFF;" parent="1" vertex="1">
          <mxGeometry x="1461" y="424.5" width="170" height="20" as="geometry" />
        </mxCell>
        <mxCell id="dfyc_2F_Ddbk1cfzF7PH-27" value="&lt;span style=&quot;font-size: 15px;&quot;&gt;&lt;b&gt;Município&lt;/b&gt;&lt;/span&gt;" style="text;html=1;align=center;verticalAlign=middle;whiteSpace=wrap;rounded=0;" parent="1" vertex="1">
          <mxGeometry x="1377" y="417.5" width="60" height="30" as="geometry" />
        </mxCell>
        <mxCell id="dfyc_2F_Ddbk1cfzF7PH-28" value="" style="shape=ext;double=1;rounded=0;whiteSpace=wrap;html=1;align=left;strokeColor=#E5CCFF;" parent="1" vertex="1">
          <mxGeometry x="1305" y="424.5" width="40" height="20" as="geometry" />
        </mxCell>
        <mxCell id="dfyc_2F_Ddbk1cfzF7PH-29" value="&lt;span style=&quot;font-size: 15px;&quot;&gt;&lt;b&gt;Nº&lt;/b&gt;&lt;/span&gt;" style="text;html=1;align=center;verticalAlign=middle;whiteSpace=wrap;rounded=0;" parent="1" vertex="1">
          <mxGeometry x="1250" y="417.5" width="60" height="30" as="geometry" />
        </mxCell>
        <mxCell id="dfyc_2F_Ddbk1cfzF7PH-30" value="&lt;span style=&quot;font-size: 15px;&quot;&gt;&lt;b&gt;Razão social&lt;/b&gt;&lt;/span&gt;" style="text;html=1;align=center;verticalAlign=middle;whiteSpace=wrap;rounded=0;" parent="1" vertex="1">
          <mxGeometry x="1221" y="342.5" width="120" height="30" as="geometry" />
        </mxCell>
        <mxCell id="dfyc_2F_Ddbk1cfzF7PH-31" value="" style="shape=ext;double=1;rounded=0;whiteSpace=wrap;html=1;align=left;strokeColor=#E5CCFF;" parent="1" vertex="1">
          <mxGeometry x="1345" y="347.5" width="170" height="20" as="geometry" />
        </mxCell>
        <mxCell id="dfyc_2F_Ddbk1cfzF7PH-32" value="" style="shape=ext;double=1;rounded=0;whiteSpace=wrap;html=1;align=left;strokeColor=#E5CCFF;" parent="1" vertex="1">
          <mxGeometry x="1105" y="462.5" width="35" height="25" as="geometry" />
        </mxCell>
        <mxCell id="dfyc_2F_Ddbk1cfzF7PH-33" value="" style="verticalLabelPosition=bottom;verticalAlign=top;html=1;shape=mxgraph.basic.tick;fillColor=#008F00;" parent="1" vertex="1">
          <mxGeometry x="1110" y="467.5" width="25" height="15" as="geometry" />
        </mxCell>
        <mxCell id="dfyc_2F_Ddbk1cfzF7PH-34" value="&lt;b&gt;SALVAR&lt;/b&gt;" style="text;html=1;align=center;verticalAlign=middle;whiteSpace=wrap;rounded=0;" parent="1" vertex="1">
          <mxGeometry x="1169" y="470.5" width="11" height="10" as="geometry" />
        </mxCell>
        <mxCell id="dfyc_2F_Ddbk1cfzF7PH-35" value="" style="shape=ext;double=1;rounded=0;whiteSpace=wrap;html=1;align=left;strokeColor=#E5CCFF;" parent="1" vertex="1">
          <mxGeometry x="1369" y="468.5" width="31" height="22" as="geometry" />
        </mxCell>
        <mxCell id="dfyc_2F_Ddbk1cfzF7PH-36" value="" style="verticalLabelPosition=bottom;verticalAlign=top;html=1;shape=mxgraph.basic.x;fillColor=#FF2121;" parent="1" vertex="1">
          <mxGeometry x="1376.25" y="469.5" width="18.75" height="20" as="geometry" />
        </mxCell>
        <mxCell id="dfyc_2F_Ddbk1cfzF7PH-37" value="&lt;b style=&quot;&quot;&gt;&lt;font style=&quot;font-size: 12px;&quot;&gt;Apagar&lt;/font&gt;&lt;/b&gt;" style="text;html=1;align=center;verticalAlign=middle;whiteSpace=wrap;rounded=0;" parent="1" vertex="1">
          <mxGeometry x="1395" y="465.5" width="60" height="30" as="geometry" />
        </mxCell>
        <mxCell id="dfyc_2F_Ddbk1cfzF7PH-38" value="" style="shape=ext;double=1;rounded=1;whiteSpace=wrap;html=1;align=left;strokeColor=#E5CCFF;glass=0;shadow=1;" parent="1" vertex="1">
          <mxGeometry x="1180" y="545" width="360" height="180" as="geometry" />
        </mxCell>
        <mxCell id="dfyc_2F_Ddbk1cfzF7PH-39" value="" style="line;strokeWidth=2;html=1;" parent="1" vertex="1">
          <mxGeometry x="1188.75" y="570" width="340" height="10" as="geometry" />
        </mxCell>
        <mxCell id="dfyc_2F_Ddbk1cfzF7PH-40" value="" style="line;strokeWidth=2;html=1;" parent="1" vertex="1">
          <mxGeometry x="1191.0700000000002" y="624" width="337.68" height="10" as="geometry" />
        </mxCell>
        <mxCell id="dfyc_2F_Ddbk1cfzF7PH-41" value="" style="line;strokeWidth=2;html=1;" parent="1" vertex="1">
          <mxGeometry x="1191.0700000000002" y="674" width="337.68" height="10" as="geometry" />
        </mxCell>
        <mxCell id="dfyc_2F_Ddbk1cfzF7PH-43" value="&lt;b style=&quot;&quot;&gt;&lt;font style=&quot;font-size: 13px;&quot;&gt;MATÉRIA PRIMA&lt;/font&gt;&lt;/b&gt;" style="text;html=1;align=center;verticalAlign=middle;whiteSpace=wrap;rounded=0;" parent="1" vertex="1">
          <mxGeometry x="1204.5" y="513" width="125" height="30" as="geometry" />
        </mxCell>
        <mxCell id="dfyc_2F_Ddbk1cfzF7PH-44" value="&lt;font style=&quot;font-size: 30px;&quot;&gt;+&lt;/font&gt;" style="shape=ext;double=1;rounded=0;whiteSpace=wrap;html=1;align=center;strokeColor=#E5CCFF;" parent="1" vertex="1">
          <mxGeometry x="1495.75" y="525" width="23" height="15" as="geometry" />
        </mxCell>
        <mxCell id="Mf139MFNlRJ3iT6mVpuW-1" value="" style="shape=waypoint;sketch=0;fillStyle=solid;size=6;pointerEvents=1;points=[];fillColor=none;resizable=0;rotatable=0;perimeter=centerPerimeter;snapToPoint=1;fontColor=#FF0F0F;strokeColor=#d71d1d;" parent="1" vertex="1">
          <mxGeometry x="361" y="302" width="20" height="20" as="geometry" />
        </mxCell>
        <mxCell id="Mf139MFNlRJ3iT6mVpuW-2" value="" style="shape=waypoint;sketch=0;fillStyle=solid;size=6;pointerEvents=1;points=[];fillColor=none;resizable=0;rotatable=0;perimeter=centerPerimeter;snapToPoint=1;fontColor=#FF0F0F;strokeColor=#d71d1d;" parent="1" vertex="1">
          <mxGeometry x="371" y="353" width="20" height="20" as="geometry" />
        </mxCell>
        <mxCell id="Mf139MFNlRJ3iT6mVpuW-3" value="" style="shape=waypoint;sketch=0;fillStyle=solid;size=6;pointerEvents=1;points=[];fillColor=none;resizable=0;rotatable=0;perimeter=centerPerimeter;snapToPoint=1;fontColor=#FF0F0F;strokeColor=#d71d1d;" parent="1" vertex="1">
          <mxGeometry x="356" y="386.5" width="20" height="20" as="geometry" />
        </mxCell>
        <mxCell id="Mf139MFNlRJ3iT6mVpuW-5" value="" style="shape=waypoint;sketch=0;fillStyle=solid;size=6;pointerEvents=1;points=[];fillColor=none;resizable=0;rotatable=0;perimeter=centerPerimeter;snapToPoint=1;fontColor=#FF0F0F;strokeColor=#d71d1d;" parent="1" vertex="1">
          <mxGeometry x="342" y="438" width="20" height="20" as="geometry" />
        </mxCell>
        <mxCell id="Mf139MFNlRJ3iT6mVpuW-6" value="" style="shape=waypoint;sketch=0;fillStyle=solid;size=6;pointerEvents=1;points=[];fillColor=none;resizable=0;rotatable=0;perimeter=centerPerimeter;snapToPoint=1;fontColor=#FF0F0F;strokeColor=#d71d1d;" parent="1" vertex="1">
          <mxGeometry x="340" y="501" width="20" height="20" as="geometry" />
        </mxCell>
        <mxCell id="Mf139MFNlRJ3iT6mVpuW-7" value="" style="shape=waypoint;sketch=0;fillStyle=solid;size=6;pointerEvents=1;points=[];fillColor=none;resizable=0;rotatable=0;perimeter=centerPerimeter;snapToPoint=1;fontColor=#FF0F0F;strokeColor=#d71d1d;" parent="1" vertex="1">
          <mxGeometry x="575" y="501.5" width="20" height="20" as="geometry" />
        </mxCell>
        <mxCell id="Mf139MFNlRJ3iT6mVpuW-8" value="" style="shape=waypoint;sketch=0;fillStyle=solid;size=6;pointerEvents=1;points=[];fillColor=none;resizable=0;rotatable=0;perimeter=centerPerimeter;snapToPoint=1;fontColor=#FF0F0F;strokeColor=#d71d1d;" parent="1" vertex="1">
          <mxGeometry x="340" y="546.5" width="20" height="20" as="geometry" />
        </mxCell>
        <mxCell id="Mf139MFNlRJ3iT6mVpuW-9" value="" style="shape=waypoint;sketch=0;fillStyle=solid;size=6;pointerEvents=1;points=[];fillColor=none;resizable=0;rotatable=0;perimeter=centerPerimeter;snapToPoint=1;fontColor=#FF0F0F;strokeColor=#d71d1d;" parent="1" vertex="1">
          <mxGeometry x="576" y="550" width="20" height="20" as="geometry" />
        </mxCell>
        <mxCell id="AFezPn1DwF1jc7aJoKaU-1" value="" style="shape=waypoint;sketch=0;fillStyle=solid;size=6;pointerEvents=1;points=[];fillColor=none;resizable=0;rotatable=0;perimeter=centerPerimeter;snapToPoint=1;fontColor=#FF0F0F;strokeColor=#d71d1d;" parent="1" vertex="1">
          <mxGeometry x="1325" y="382.5" width="20" height="20" as="geometry" />
        </mxCell>
        <mxCell id="AFezPn1DwF1jc7aJoKaU-2" value="" style="shape=waypoint;sketch=0;fillStyle=solid;size=6;pointerEvents=1;points=[];fillColor=none;resizable=0;rotatable=0;perimeter=centerPerimeter;snapToPoint=1;fontColor=#FF0F0F;strokeColor=#d71d1d;" parent="1" vertex="1">
          <mxGeometry x="1286" y="422.5" width="20" height="20" as="geometry" />
        </mxCell>
        <mxCell id="AFezPn1DwF1jc7aJoKaU-3" value="" style="shape=waypoint;sketch=0;fillStyle=solid;size=6;pointerEvents=1;points=[];fillColor=none;resizable=0;rotatable=0;perimeter=centerPerimeter;snapToPoint=1;fontColor=#FF0F0F;strokeColor=#d71d1d;" parent="1" vertex="1">
          <mxGeometry x="1325" y="347.5" width="20" height="20" as="geometry" />
        </mxCell>
        <mxCell id="AFezPn1DwF1jc7aJoKaU-4" value="" style="shape=waypoint;sketch=0;fillStyle=solid;size=6;pointerEvents=1;points=[];fillColor=none;resizable=0;rotatable=0;perimeter=centerPerimeter;snapToPoint=1;fontColor=#FF0F0F;strokeColor=#d71d1d;" parent="1" vertex="1">
          <mxGeometry x="1050" y="385" width="20" height="20" as="geometry" />
        </mxCell>
        <mxCell id="AFezPn1DwF1jc7aJoKaU-5" value="" style="shape=waypoint;sketch=0;fillStyle=solid;size=6;pointerEvents=1;points=[];fillColor=none;resizable=0;rotatable=0;perimeter=centerPerimeter;snapToPoint=1;fontColor=#FF0F0F;strokeColor=#d71d1d;" parent="1" vertex="1">
          <mxGeometry x="1625" y="347.5" width="20" height="20" as="geometry" />
        </mxCell>
        <mxCell id="AFezPn1DwF1jc7aJoKaU-6" value="" style="shape=waypoint;sketch=0;fillStyle=solid;size=6;pointerEvents=1;points=[];fillColor=none;resizable=0;rotatable=0;perimeter=centerPerimeter;snapToPoint=1;fontColor=#FF0F0F;strokeColor=#d71d1d;" parent="1" vertex="1">
          <mxGeometry x="1070" y="352.5" width="20" height="20" as="geometry" />
        </mxCell>
        <mxCell id="AFezPn1DwF1jc7aJoKaU-8" value="" style="shape=waypoint;sketch=0;fillStyle=solid;size=6;pointerEvents=1;points=[];fillColor=none;resizable=0;rotatable=0;perimeter=centerPerimeter;snapToPoint=1;fontColor=#FF0F0F;strokeColor=#d71d1d;" parent="1" vertex="1">
          <mxGeometry x="1441" y="423.5" width="20" height="20" as="geometry" />
        </mxCell>
        <mxCell id="AFezPn1DwF1jc7aJoKaU-9" value="" style="shape=waypoint;sketch=0;fillStyle=solid;size=6;pointerEvents=1;points=[];fillColor=none;resizable=0;rotatable=0;perimeter=centerPerimeter;snapToPoint=1;fontColor=#FF0F0F;strokeColor=#d71d1d;" parent="1" vertex="1">
          <mxGeometry x="1667" y="425" width="20" height="20" as="geometry" />
        </mxCell>
        <mxCell id="uZf4kmclFm-tVCdZcN9--1" value="" style="shape=ext;double=1;rounded=1;whiteSpace=wrap;html=1;glass=1;shadow=0;fillColor=#F2C2DB;strokeColor=#9673a6;arcSize=14;" parent="1" vertex="1">
          <mxGeometry x="-470" y="67.5" width="440" height="800" as="geometry" />
        </mxCell>
        <mxCell id="uZf4kmclFm-tVCdZcN9--2" value="&lt;b&gt;&lt;font style=&quot;font-size: 20px;&quot;&gt;&amp;nbsp;FORNECEDOR&amp;nbsp;&amp;nbsp;&lt;/font&gt;&lt;/b&gt;" style="shape=ext;double=1;rounded=0;whiteSpace=wrap;html=1;" parent="1" vertex="1">
          <mxGeometry x="-350" y="150" width="170" height="30" as="geometry" />
        </mxCell>
        <mxCell id="uZf4kmclFm-tVCdZcN9--3" value="" style="shape=ext;double=1;rounded=0;whiteSpace=wrap;html=1;align=left;strokeColor=#E5CCFF;" parent="1" vertex="1">
          <mxGeometry x="-411.5" y="280" width="263" height="28" as="geometry" />
        </mxCell>
        <mxCell id="uZf4kmclFm-tVCdZcN9--4" value="&lt;h5&gt;&lt;br&gt;&lt;/h5&gt;" style="text;html=1;align=center;verticalAlign=middle;whiteSpace=wrap;rounded=0;" parent="1" vertex="1">
          <mxGeometry x="-400" y="325" width="240" as="geometry" />
        </mxCell>
        <mxCell id="uZf4kmclFm-tVCdZcN9--27" value="" style="shape=ext;double=1;rounded=1;whiteSpace=wrap;html=1;align=left;strokeColor=#E5CCFF;glass=0;shadow=1;" parent="1" vertex="1">
          <mxGeometry x="-445" y="610" width="370" height="240" as="geometry" />
        </mxCell>
        <mxCell id="uZf4kmclFm-tVCdZcN9--28" value="" style="line;strokeWidth=2;html=1;" parent="1" vertex="1">
          <mxGeometry x="-445" y="655" width="375" height="10" as="geometry" />
        </mxCell>
        <mxCell id="uZf4kmclFm-tVCdZcN9--29" value="" style="line;strokeWidth=2;html=1;" parent="1" vertex="1">
          <mxGeometry x="-441.25" y="705" width="372.5" height="10" as="geometry" />
        </mxCell>
        <mxCell id="uZf4kmclFm-tVCdZcN9--30" value="" style="line;strokeWidth=2;html=1;" parent="1" vertex="1">
          <mxGeometry x="-445" y="755" width="375" height="10" as="geometry" />
        </mxCell>
        <mxCell id="uZf4kmclFm-tVCdZcN9--31" value="" style="line;strokeWidth=2;html=1;" parent="1" vertex="1">
          <mxGeometry x="-445" y="805" width="375" height="10" as="geometry" />
        </mxCell>
        <mxCell id="uZf4kmclFm-tVCdZcN9--32" value="&lt;b style=&quot;&quot;&gt;&lt;font style=&quot;font-size: 13px;&quot;&gt;MATÉRIA PRIMA&lt;/font&gt;&lt;/b&gt;" style="text;html=1;align=center;verticalAlign=middle;whiteSpace=wrap;rounded=0;" parent="1" vertex="1">
          <mxGeometry x="-450" y="580" width="125" height="30" as="geometry" />
        </mxCell>
        <mxCell id="uZf4kmclFm-tVCdZcN9--33" value="&lt;font style=&quot;font-size: 30px;&quot;&gt;+&lt;/font&gt;" style="shape=ext;double=1;rounded=0;whiteSpace=wrap;html=1;align=center;strokeColor=#E5CCFF;" parent="1" vertex="1">
          <mxGeometry x="-105" y="560" width="30" height="25" as="geometry" />
        </mxCell>
        <mxCell id="uZf4kmclFm-tVCdZcN9--34" value="&lt;h5&gt;&lt;br&gt;&lt;/h5&gt;" style="text;html=1;align=center;verticalAlign=middle;whiteSpace=wrap;rounded=0;" parent="1" vertex="1">
          <mxGeometry x="-390" y="335" width="240" as="geometry" />
        </mxCell>
        <mxCell id="5PpsAvC52e9pfSK_GTfH-1" value="" style="shape=ext;double=1;rounded=0;whiteSpace=wrap;html=1;align=left;strokeColor=#E5CCFF;" parent="1" vertex="1">
          <mxGeometry x="-411.5" y="322" width="263" height="28" as="geometry" />
        </mxCell>
        <mxCell id="5PpsAvC52e9pfSK_GTfH-2" value="" style="shape=ext;double=1;rounded=0;whiteSpace=wrap;html=1;align=left;strokeColor=#E5CCFF;" parent="1" vertex="1">
          <mxGeometry x="-411.5" y="372.5" width="263" height="28" as="geometry" />
        </mxCell>
        <mxCell id="5PpsAvC52e9pfSK_GTfH-3" value="" style="shape=ext;double=1;rounded=0;whiteSpace=wrap;html=1;align=left;strokeColor=#E5CCFF;" parent="1" vertex="1">
          <mxGeometry x="-411.5" y="414.5" width="263" height="28" as="geometry" />
        </mxCell>
        <mxCell id="5PpsAvC52e9pfSK_GTfH-4" value="" style="shape=ext;double=1;rounded=0;whiteSpace=wrap;html=1;align=left;strokeColor=#E5CCFF;" parent="1" vertex="1">
          <mxGeometry x="-391.5" y="215" width="281.5" height="28" as="geometry" />
        </mxCell>
        <mxCell id="HSr3bZsqz5csTOV1Myv_-1" value="" style="shape=ext;double=1;rounded=0;whiteSpace=wrap;html=1;align=left;strokeColor=#E5CCFF;" parent="1" vertex="1">
          <mxGeometry x="-411.5" y="465.5" width="263" height="28" as="geometry" />
        </mxCell>
        <mxCell id="HSr3bZsqz5csTOV1Myv_-2" value="" style="shape=ext;double=1;rounded=0;whiteSpace=wrap;html=1;align=left;strokeColor=#E5CCFF;" parent="1" vertex="1">
          <mxGeometry x="-413" y="514" width="263" height="28" as="geometry" />
        </mxCell>
        <mxCell id="kMVLva5Pd1_TBJX_qZ1C-1" value="&lt;font style=&quot;font-size: 30px;&quot;&gt;+&lt;/font&gt;" style="shape=ext;double=1;rounded=0;whiteSpace=wrap;html=1;align=center;strokeColor=#E5CCFF;" parent="1" vertex="1">
          <mxGeometry x="-103.74" y="216.5" width="30" height="25" as="geometry" />
        </mxCell>
        <mxCell id="kMVLva5Pd1_TBJX_qZ1C-2" value="" style="shape=ext;double=1;rounded=0;whiteSpace=wrap;html=1;align=center;strokeColor=#E5CCFF;" parent="1" vertex="1">
          <mxGeometry x="-125" y="460" width="35" height="33.5" as="geometry" />
        </mxCell>
        <mxCell id="kMVLva5Pd1_TBJX_qZ1C-3" value="" style="shape=ext;double=1;rounded=0;whiteSpace=wrap;html=1;align=center;strokeColor=#E5CCFF;" parent="1" vertex="1">
          <mxGeometry x="-125" y="410" width="35" height="28" as="geometry" />
        </mxCell>
        <mxCell id="kMVLva5Pd1_TBJX_qZ1C-4" value="" style="shape=ext;double=1;rounded=0;whiteSpace=wrap;html=1;align=center;strokeColor=#E5CCFF;" parent="1" vertex="1">
          <mxGeometry x="-125" y="360" width="35" height="33" as="geometry" />
        </mxCell>
        <mxCell id="kMVLva5Pd1_TBJX_qZ1C-5" value="" style="shape=ext;double=1;rounded=0;whiteSpace=wrap;html=1;align=center;strokeColor=#E5CCFF;" parent="1" vertex="1">
          <mxGeometry x="-125" y="320" width="35" height="30" as="geometry" />
        </mxCell>
        <mxCell id="kMVLva5Pd1_TBJX_qZ1C-6" value="" style="shape=ext;double=1;rounded=0;whiteSpace=wrap;html=1;align=center;strokeColor=#E5CCFF;" parent="1" vertex="1">
          <mxGeometry x="-125" y="270" width="35" height="36.5" as="geometry" />
        </mxCell>
        <mxCell id="kMVLva5Pd1_TBJX_qZ1C-7" value="" style="shape=ext;double=1;rounded=0;whiteSpace=wrap;html=1;align=center;strokeColor=#E5CCFF;" parent="1" vertex="1">
          <mxGeometry x="-125" y="510" width="35" height="28" as="geometry" />
        </mxCell>
        <mxCell id="H5V6s-s3M7mEQe5S73uE-1" value="" style="html=1;verticalLabelPosition=bottom;align=center;labelBackgroundColor=#ffffff;verticalAlign=top;strokeWidth=2;strokeColor=#0080F0;shadow=0;dashed=0;shape=mxgraph.ios7.icons.trashcan;" parent="1" vertex="1">
          <mxGeometry x="-117.5" y="280" width="20" height="20" as="geometry" />
        </mxCell>
        <mxCell id="H5V6s-s3M7mEQe5S73uE-3" value="" style="html=1;verticalLabelPosition=bottom;align=center;labelBackgroundColor=#ffffff;verticalAlign=top;strokeWidth=2;strokeColor=#0080F0;shadow=0;dashed=0;shape=mxgraph.ios7.icons.trashcan;" parent="1" vertex="1">
          <mxGeometry x="-116" y="366.5" width="20" height="20" as="geometry" />
        </mxCell>
        <mxCell id="H5V6s-s3M7mEQe5S73uE-4" value="" style="html=1;verticalLabelPosition=bottom;align=center;labelBackgroundColor=#ffffff;verticalAlign=top;strokeWidth=2;strokeColor=#0080F0;shadow=0;dashed=0;shape=mxgraph.ios7.icons.trashcan;" parent="1" vertex="1">
          <mxGeometry x="-117.5" y="413" width="20" height="20" as="geometry" />
        </mxCell>
        <mxCell id="H5V6s-s3M7mEQe5S73uE-5" value="" style="html=1;verticalLabelPosition=bottom;align=center;labelBackgroundColor=#ffffff;verticalAlign=top;strokeWidth=2;strokeColor=#0080F0;shadow=0;dashed=0;shape=mxgraph.ios7.icons.trashcan;" parent="1" vertex="1">
          <mxGeometry x="-117.5" y="465" width="20" height="20" as="geometry" />
        </mxCell>
        <mxCell id="H5V6s-s3M7mEQe5S73uE-6" value="" style="html=1;verticalLabelPosition=bottom;align=center;labelBackgroundColor=#ffffff;verticalAlign=top;strokeWidth=2;strokeColor=#0080F0;shadow=0;dashed=0;shape=mxgraph.ios7.icons.trashcan;" parent="1" vertex="1">
          <mxGeometry x="-117.5" y="514" width="20" height="20" as="geometry" />
        </mxCell>
        <mxCell id="H5V6s-s3M7mEQe5S73uE-7" value="" style="html=1;verticalLabelPosition=bottom;align=center;labelBackgroundColor=#ffffff;verticalAlign=top;strokeWidth=2;strokeColor=#0080F0;shadow=0;dashed=0;shape=mxgraph.ios7.icons.trashcan;" parent="1" vertex="1">
          <mxGeometry x="-116" y="326" width="20" height="20" as="geometry" />
        </mxCell>
        <mxCell id="H5V6s-s3M7mEQe5S73uE-8" value="" style="shape=ext;double=1;rounded=0;whiteSpace=wrap;html=1;align=center;strokeColor=#E5CCFF;" parent="1" vertex="1">
          <mxGeometry x="-80" y="321" width="35" height="30" as="geometry" />
        </mxCell>
        <mxCell id="H5V6s-s3M7mEQe5S73uE-10" value="" style="shape=ext;double=1;rounded=0;whiteSpace=wrap;html=1;align=center;strokeColor=#E5CCFF;" parent="1" vertex="1">
          <mxGeometry x="-75" y="366.5" width="35" height="30" as="geometry" />
        </mxCell>
        <mxCell id="H5V6s-s3M7mEQe5S73uE-11" value="" style="shape=ext;double=1;rounded=0;whiteSpace=wrap;html=1;align=center;strokeColor=#E5CCFF;" parent="1" vertex="1">
          <mxGeometry x="-75" y="410" width="35" height="30" as="geometry" />
        </mxCell>
        <mxCell id="H5V6s-s3M7mEQe5S73uE-12" value="" style="shape=ext;double=1;rounded=0;whiteSpace=wrap;html=1;align=center;strokeColor=#E5CCFF;" parent="1" vertex="1">
          <mxGeometry x="-75" y="461.75" width="35" height="30" as="geometry" />
        </mxCell>
        <mxCell id="H5V6s-s3M7mEQe5S73uE-13" value="" style="shape=ext;double=1;rounded=0;whiteSpace=wrap;html=1;align=center;strokeColor=#E5CCFF;" parent="1" vertex="1">
          <mxGeometry x="-75" y="510" width="35" height="30" as="geometry" />
        </mxCell>
        <mxCell id="H5V6s-s3M7mEQe5S73uE-14" value="" style="shape=ext;double=1;rounded=0;whiteSpace=wrap;html=1;align=center;strokeColor=#E5CCFF;" parent="1" vertex="1">
          <mxGeometry x="-80" y="273.25" width="35" height="30" as="geometry" />
        </mxCell>
        <mxCell id="H5V6s-s3M7mEQe5S73uE-15" value="" style="sketch=0;outlineConnect=0;fontColor=#232F3E;gradientColor=none;fillColor=#7AA116;strokeColor=none;dashed=0;verticalLabelPosition=bottom;verticalAlign=top;align=center;html=1;fontSize=12;fontStyle=0;aspect=fixed;pointerEvents=1;shape=mxgraph.aws4.iot_over_the_air_update;" parent="1" vertex="1">
          <mxGeometry x="-76.74" y="277" width="28.48" height="23" as="geometry" />
        </mxCell>
        <mxCell id="H5V6s-s3M7mEQe5S73uE-16" value="" style="sketch=0;outlineConnect=0;fontColor=#232F3E;gradientColor=none;fillColor=#7AA116;strokeColor=none;dashed=0;verticalLabelPosition=bottom;verticalAlign=top;align=center;html=1;fontSize=12;fontStyle=0;aspect=fixed;pointerEvents=1;shape=mxgraph.aws4.iot_over_the_air_update;" parent="1" vertex="1">
          <mxGeometry x="-71.47999999999999" y="371.5" width="28.48" height="23" as="geometry" />
        </mxCell>
        <mxCell id="H5V6s-s3M7mEQe5S73uE-17" value="" style="sketch=0;outlineConnect=0;fontColor=#232F3E;gradientColor=none;fillColor=#7AA116;strokeColor=none;dashed=0;verticalLabelPosition=bottom;verticalAlign=top;align=center;html=1;fontSize=12;fontStyle=0;aspect=fixed;pointerEvents=1;shape=mxgraph.aws4.iot_over_the_air_update;" parent="1" vertex="1">
          <mxGeometry x="-70.74" y="411" width="28.48" height="23" as="geometry" />
        </mxCell>
        <mxCell id="H5V6s-s3M7mEQe5S73uE-18" value="" style="sketch=0;outlineConnect=0;fontColor=#232F3E;gradientColor=none;fillColor=#7AA116;strokeColor=none;dashed=0;verticalLabelPosition=bottom;verticalAlign=top;align=center;html=1;fontSize=12;fontStyle=0;aspect=fixed;pointerEvents=1;shape=mxgraph.aws4.iot_over_the_air_update;" parent="1" vertex="1">
          <mxGeometry x="-69.74" y="465.5" width="28.48" height="23" as="geometry" />
        </mxCell>
        <mxCell id="0Lvd4Apdu9pohfa6FTHu-3" style="edgeStyle=orthogonalEdgeStyle;rounded=0;orthogonalLoop=1;jettySize=auto;html=1;" parent="1" source="H5V6s-s3M7mEQe5S73uE-19" edge="1">
          <mxGeometry relative="1" as="geometry">
            <mxPoint x="260" y="526.5" as="targetPoint" />
          </mxGeometry>
        </mxCell>
        <mxCell id="H5V6s-s3M7mEQe5S73uE-19" value="" style="sketch=0;outlineConnect=0;fontColor=#232F3E;gradientColor=none;fillColor=#7AA116;strokeColor=none;dashed=0;verticalLabelPosition=bottom;verticalAlign=top;align=center;html=1;fontSize=12;fontStyle=0;aspect=fixed;pointerEvents=1;shape=mxgraph.aws4.iot_over_the_air_update;" parent="1" vertex="1">
          <mxGeometry x="-71" y="515" width="28.48" height="23" as="geometry" />
        </mxCell>
        <mxCell id="H5V6s-s3M7mEQe5S73uE-20" value="" style="sketch=0;outlineConnect=0;fontColor=#232F3E;gradientColor=none;fillColor=#7AA116;strokeColor=none;dashed=0;verticalLabelPosition=bottom;verticalAlign=top;align=center;html=1;fontSize=12;fontStyle=0;aspect=fixed;pointerEvents=1;shape=mxgraph.aws4.iot_over_the_air_update;" parent="1" vertex="1">
          <mxGeometry x="-73.74" y="322" width="28.48" height="23" as="geometry" />
        </mxCell>
        <mxCell id="YcU6C6vA5MarmE0VQlVy-14" value="" style="shape=ext;double=1;rounded=1;whiteSpace=wrap;html=1;" parent="1" vertex="1">
          <mxGeometry x="-10" y="422.5" width="150" height="80" as="geometry" />
        </mxCell>
        <mxCell id="YcU6C6vA5MarmE0VQlVy-15" value="&lt;span style=&quot;font-size: 13px;&quot;&gt;DESEJA APAGAR&amp;nbsp;&lt;/span&gt;&lt;span style=&quot;font-size: 13px; background-color: initial;&quot;&gt;ISSO ?&lt;/span&gt;" style="text;strokeColor=none;fillColor=none;html=1;fontSize=24;fontStyle=1;verticalAlign=middle;align=center;rotation=0;" parent="1" vertex="1">
          <mxGeometry x="10" y="422.5" width="120" height="31" as="geometry" />
        </mxCell>
        <mxCell id="EY0Rf_4wHfadpNTe5knS-1" value="SIM" style="shape=ext;double=1;rounded=0;whiteSpace=wrap;html=1;strokeColor=#00BF60;" parent="1" vertex="1">
          <mxGeometry y="473.5" width="60" height="22" as="geometry" />
        </mxCell>
        <mxCell id="EY0Rf_4wHfadpNTe5knS-2" value="NÃO" style="shape=ext;double=1;rounded=0;whiteSpace=wrap;html=1;strokeColor=#FF3030;" parent="1" vertex="1">
          <mxGeometry x="70" y="473.5" width="60" height="22" as="geometry" />
        </mxCell>
        <mxCell id="EY0Rf_4wHfadpNTe5knS-5" style="edgeStyle=orthogonalEdgeStyle;rounded=0;orthogonalLoop=1;jettySize=auto;html=1;entryX=0.013;entryY=0.344;entryDx=0;entryDy=0;entryPerimeter=0;" parent="1" source="kMVLva5Pd1_TBJX_qZ1C-2" target="YcU6C6vA5MarmE0VQlVy-14" edge="1">
          <mxGeometry relative="1" as="geometry">
            <Array as="points">
              <mxPoint x="-107" y="450" />
            </Array>
          </mxGeometry>
        </mxCell>
        <mxCell id="8cmKkup9JMITYJbn658u-40" value="" style="shape=ext;double=1;rounded=0;whiteSpace=wrap;html=1;fillColor=#FFCCE6;strokeColor=#b85450;shadow=1;glass=1;gradientDirection=south;" vertex="1" parent="1">
          <mxGeometry x="2035" y="225.5" width="840" height="510" as="geometry" />
        </mxCell>
        <mxCell id="8cmKkup9JMITYJbn658u-41" value="&lt;b&gt;&lt;font style=&quot;font-size: 20px;&quot;&gt;&amp;nbsp;FORNECEDOR&amp;nbsp;&amp;nbsp;&lt;/font&gt;&lt;/b&gt;" style="shape=ext;double=1;rounded=0;whiteSpace=wrap;html=1;" vertex="1" parent="1">
          <mxGeometry x="2240" y="245" width="170" height="30" as="geometry" />
        </mxCell>
        <mxCell id="8cmKkup9JMITYJbn658u-42" value="" style="shape=ext;double=1;rounded=0;whiteSpace=wrap;html=1;align=left;strokeColor=#E5CCFF;" vertex="1" parent="1">
          <mxGeometry x="2145.5" y="326" width="60" height="20" as="geometry" />
        </mxCell>
        <mxCell id="8cmKkup9JMITYJbn658u-43" value="&lt;font style=&quot;font-size: 15px;&quot;&gt;&lt;b&gt;Código&lt;/b&gt;&lt;/font&gt;" style="text;html=1;align=center;verticalAlign=middle;whiteSpace=wrap;rounded=0;" vertex="1" parent="1">
          <mxGeometry x="2051.5" y="317" width="70" height="30" as="geometry" />
        </mxCell>
        <mxCell id="8cmKkup9JMITYJbn658u-44" value="&lt;span style=&quot;font-size: 15px;&quot;&gt;&lt;b&gt;CNJP/CPF&lt;/b&gt;&lt;/span&gt;" style="text;html=1;align=center;verticalAlign=middle;whiteSpace=wrap;rounded=0;" vertex="1" parent="1">
          <mxGeometry x="2612" y="320" width="60" height="35" as="geometry" />
        </mxCell>
        <mxCell id="8cmKkup9JMITYJbn658u-45" value="" style="shape=ext;double=1;rounded=0;whiteSpace=wrap;html=1;align=left;strokeColor=#E5CCFF;" vertex="1" parent="1">
          <mxGeometry x="2711" y="329" width="120" height="20" as="geometry" />
        </mxCell>
        <mxCell id="8cmKkup9JMITYJbn658u-46" value="&lt;span style=&quot;font-size: 15px;&quot;&gt;&lt;b&gt;Telefone:&lt;/b&gt;&lt;/span&gt;" style="text;html=1;align=center;verticalAlign=middle;whiteSpace=wrap;rounded=0;" vertex="1" parent="1">
          <mxGeometry x="2405" y="371.25" width="60" height="32.5" as="geometry" />
        </mxCell>
        <mxCell id="8cmKkup9JMITYJbn658u-47" value="" style="shape=ext;double=1;rounded=0;whiteSpace=wrap;html=1;align=left;strokeColor=#E5CCFF;" vertex="1" parent="1">
          <mxGeometry x="2486" y="376.5" width="40" height="20" as="geometry" />
        </mxCell>
        <mxCell id="8cmKkup9JMITYJbn658u-48" value="" style="shape=ext;double=1;rounded=0;whiteSpace=wrap;html=1;align=left;strokeColor=#E5CCFF;" vertex="1" parent="1">
          <mxGeometry x="2540" y="377.5" width="120" height="20" as="geometry" />
        </mxCell>
        <mxCell id="8cmKkup9JMITYJbn658u-49" value="&lt;span style=&quot;font-size: 15px;&quot;&gt;&lt;b&gt;Endereço&lt;/b&gt;&lt;/span&gt;" style="text;html=1;align=center;verticalAlign=middle;whiteSpace=wrap;rounded=0;" vertex="1" parent="1">
          <mxGeometry x="2091" y="374.75" width="60" height="31.25" as="geometry" />
        </mxCell>
        <mxCell id="8cmKkup9JMITYJbn658u-50" value="" style="shape=ext;double=1;rounded=0;whiteSpace=wrap;html=1;align=left;strokeColor=#E5CCFF;" vertex="1" parent="1">
          <mxGeometry x="2174" y="382.75" width="170" height="20" as="geometry" />
        </mxCell>
        <mxCell id="8cmKkup9JMITYJbn658u-51" value="" style="shape=ext;double=1;rounded=0;whiteSpace=wrap;html=1;align=left;strokeColor=#E5CCFF;" vertex="1" parent="1">
          <mxGeometry x="2756" y="421" width="40" height="20" as="geometry" />
        </mxCell>
        <mxCell id="8cmKkup9JMITYJbn658u-52" value="&lt;span style=&quot;font-size: 15px;&quot;&gt;&lt;b&gt;UF&lt;/b&gt;&lt;/span&gt;" style="text;html=1;align=center;verticalAlign=middle;whiteSpace=wrap;rounded=0;" vertex="1" parent="1">
          <mxGeometry x="2677" y="417.5" width="70" height="25" as="geometry" />
        </mxCell>
        <mxCell id="8cmKkup9JMITYJbn658u-53" value="" style="shape=ext;double=1;rounded=0;whiteSpace=wrap;html=1;align=left;strokeColor=#E5CCFF;" vertex="1" parent="1">
          <mxGeometry x="2494" y="421.5" width="170" height="20" as="geometry" />
        </mxCell>
        <mxCell id="8cmKkup9JMITYJbn658u-54" value="&lt;span style=&quot;font-size: 15px;&quot;&gt;&lt;b&gt;Município&lt;/b&gt;&lt;/span&gt;" style="text;html=1;align=center;verticalAlign=middle;whiteSpace=wrap;rounded=0;" vertex="1" parent="1">
          <mxGeometry x="2405" y="415.5" width="60" height="30" as="geometry" />
        </mxCell>
        <mxCell id="8cmKkup9JMITYJbn658u-55" value="" style="shape=ext;double=1;rounded=0;whiteSpace=wrap;html=1;align=left;strokeColor=#E5CCFF;" vertex="1" parent="1">
          <mxGeometry x="2304" y="418.5" width="40" height="20" as="geometry" />
        </mxCell>
        <mxCell id="8cmKkup9JMITYJbn658u-56" value="&lt;span style=&quot;font-size: 15px;&quot;&gt;&lt;b&gt;Nº&lt;/b&gt;&lt;/span&gt;" style="text;html=1;align=center;verticalAlign=middle;whiteSpace=wrap;rounded=0;" vertex="1" parent="1">
          <mxGeometry x="2239" y="412.5" width="60" height="30" as="geometry" />
        </mxCell>
        <mxCell id="8cmKkup9JMITYJbn658u-57" value="&lt;span style=&quot;font-size: 15px;&quot;&gt;&lt;b&gt;Razão social&lt;/b&gt;&lt;/span&gt;" style="text;html=1;align=center;verticalAlign=middle;whiteSpace=wrap;rounded=0;" vertex="1" parent="1">
          <mxGeometry x="2218" y="318.5" width="120" height="30" as="geometry" />
        </mxCell>
        <mxCell id="8cmKkup9JMITYJbn658u-58" value="" style="shape=ext;double=1;rounded=0;whiteSpace=wrap;html=1;align=left;strokeColor=#E5CCFF;" vertex="1" parent="1">
          <mxGeometry x="2354" y="327.5" width="170" height="20" as="geometry" />
        </mxCell>
        <mxCell id="8cmKkup9JMITYJbn658u-59" value="" style="shape=ext;double=1;rounded=0;whiteSpace=wrap;html=1;align=left;strokeColor=#E5CCFF;" vertex="1" parent="1">
          <mxGeometry x="2035" y="457.5" width="35" height="25" as="geometry" />
        </mxCell>
        <mxCell id="8cmKkup9JMITYJbn658u-60" value="" style="verticalLabelPosition=bottom;verticalAlign=top;html=1;shape=mxgraph.basic.tick;fillColor=#008F00;" vertex="1" parent="1">
          <mxGeometry x="2040" y="462.5" width="25" height="15" as="geometry" />
        </mxCell>
        <mxCell id="8cmKkup9JMITYJbn658u-61" value="&lt;b&gt;SALVAR&lt;/b&gt;" style="text;html=1;align=center;verticalAlign=middle;whiteSpace=wrap;rounded=0;" vertex="1" parent="1">
          <mxGeometry x="2195" y="477.5" width="11" height="10" as="geometry" />
        </mxCell>
        <mxCell id="8cmKkup9JMITYJbn658u-62" value="" style="shape=ext;double=1;rounded=0;whiteSpace=wrap;html=1;align=left;strokeColor=#E5CCFF;" vertex="1" parent="1">
          <mxGeometry x="2477" y="464.5" width="31" height="22" as="geometry" />
        </mxCell>
        <mxCell id="8cmKkup9JMITYJbn658u-63" value="" style="verticalLabelPosition=bottom;verticalAlign=top;html=1;shape=mxgraph.basic.x;fillColor=#FF2121;" vertex="1" parent="1">
          <mxGeometry x="2483.25" y="464.5" width="18.75" height="20" as="geometry" />
        </mxCell>
        <mxCell id="8cmKkup9JMITYJbn658u-64" value="&lt;b style=&quot;&quot;&gt;&lt;font style=&quot;font-size: 12px;&quot;&gt;Apagar&lt;/font&gt;&lt;/b&gt;" style="text;html=1;align=center;verticalAlign=middle;whiteSpace=wrap;rounded=0;" vertex="1" parent="1">
          <mxGeometry x="2510" y="460.5" width="60" height="30" as="geometry" />
        </mxCell>
        <mxCell id="8cmKkup9JMITYJbn658u-65" value="" style="shape=ext;double=1;rounded=1;whiteSpace=wrap;html=1;align=left;strokeColor=#E5CCFF;glass=0;shadow=1;" vertex="1" parent="1">
          <mxGeometry x="2221" y="540" width="360" height="180" as="geometry" />
        </mxCell>
        <mxCell id="8cmKkup9JMITYJbn658u-66" value="" style="line;strokeWidth=2;html=1;" vertex="1" parent="1">
          <mxGeometry x="2223.75" y="565" width="340" height="10" as="geometry" />
        </mxCell>
        <mxCell id="8cmKkup9JMITYJbn658u-67" value="" style="line;strokeWidth=2;html=1;" vertex="1" parent="1">
          <mxGeometry x="2226.07" y="619" width="337.68" height="10" as="geometry" />
        </mxCell>
        <mxCell id="8cmKkup9JMITYJbn658u-68" value="" style="line;strokeWidth=2;html=1;" vertex="1" parent="1">
          <mxGeometry x="2227.07" y="669" width="337.68" height="10" as="geometry" />
        </mxCell>
        <mxCell id="8cmKkup9JMITYJbn658u-69" value="&lt;b style=&quot;&quot;&gt;&lt;font style=&quot;font-size: 13px;&quot;&gt;MATÉRIA PRIMA&lt;/font&gt;&lt;/b&gt;" style="text;html=1;align=center;verticalAlign=middle;whiteSpace=wrap;rounded=0;" vertex="1" parent="1">
          <mxGeometry x="2237.5" y="508" width="125" height="30" as="geometry" />
        </mxCell>
        <mxCell id="8cmKkup9JMITYJbn658u-70" value="&lt;font style=&quot;font-size: 30px;&quot;&gt;+&lt;/font&gt;" style="shape=ext;double=1;rounded=0;whiteSpace=wrap;html=1;align=center;strokeColor=#E5CCFF;" vertex="1" parent="1">
          <mxGeometry x="2528.75" y="520" width="23" height="15" as="geometry" />
        </mxCell>
        <mxCell id="8cmKkup9JMITYJbn658u-71" value="" style="shape=waypoint;sketch=0;fillStyle=solid;size=6;pointerEvents=1;points=[];fillColor=none;resizable=0;rotatable=0;perimeter=centerPerimeter;snapToPoint=1;fontColor=#FF0F0F;strokeColor=#d71d1d;" vertex="1" parent="1">
          <mxGeometry x="2465" y="376.5" width="20" height="20" as="geometry" />
        </mxCell>
        <mxCell id="8cmKkup9JMITYJbn658u-72" value="" style="shape=waypoint;sketch=0;fillStyle=solid;size=6;pointerEvents=1;points=[];fillColor=none;resizable=0;rotatable=0;perimeter=centerPerimeter;snapToPoint=1;fontColor=#FF0F0F;strokeColor=#d71d1d;" vertex="1" parent="1">
          <mxGeometry x="2279" y="416.5" width="20" height="20" as="geometry" />
        </mxCell>
        <mxCell id="8cmKkup9JMITYJbn658u-73" value="" style="shape=waypoint;sketch=0;fillStyle=solid;size=6;pointerEvents=1;points=[];fillColor=none;resizable=0;rotatable=0;perimeter=centerPerimeter;snapToPoint=1;fontColor=#FF0F0F;strokeColor=#d71d1d;" vertex="1" parent="1">
          <mxGeometry x="2327" y="324.5" width="20" height="20" as="geometry" />
        </mxCell>
        <mxCell id="8cmKkup9JMITYJbn658u-74" value="" style="shape=waypoint;sketch=0;fillStyle=solid;size=6;pointerEvents=1;points=[];fillColor=none;resizable=0;rotatable=0;perimeter=centerPerimeter;snapToPoint=1;fontColor=#FF0F0F;strokeColor=#d71d1d;" vertex="1" parent="1">
          <mxGeometry x="2151" y="381" width="20" height="20" as="geometry" />
        </mxCell>
        <mxCell id="8cmKkup9JMITYJbn658u-75" value="" style="shape=waypoint;sketch=0;fillStyle=solid;size=6;pointerEvents=1;points=[];fillColor=none;resizable=0;rotatable=0;perimeter=centerPerimeter;snapToPoint=1;fontColor=#FF0F0F;strokeColor=#d71d1d;" vertex="1" parent="1">
          <mxGeometry x="2683" y="327.5" width="20" height="20" as="geometry" />
        </mxCell>
        <mxCell id="8cmKkup9JMITYJbn658u-76" value="" style="shape=waypoint;sketch=0;fillStyle=solid;size=6;pointerEvents=1;points=[];fillColor=none;resizable=0;rotatable=0;perimeter=centerPerimeter;snapToPoint=1;fontColor=#FF0F0F;strokeColor=#d71d1d;" vertex="1" parent="1">
          <mxGeometry x="2113" y="322.5" width="20" height="20" as="geometry" />
        </mxCell>
        <mxCell id="8cmKkup9JMITYJbn658u-77" value="" style="shape=waypoint;sketch=0;fillStyle=solid;size=6;pointerEvents=1;points=[];fillColor=none;resizable=0;rotatable=0;perimeter=centerPerimeter;snapToPoint=1;fontColor=#FF0F0F;strokeColor=#d71d1d;" vertex="1" parent="1">
          <mxGeometry x="2470" y="419.5" width="20" height="20" as="geometry" />
        </mxCell>
        <mxCell id="8cmKkup9JMITYJbn658u-78" value="" style="shape=waypoint;sketch=0;fillStyle=solid;size=6;pointerEvents=1;points=[];fillColor=none;resizable=0;rotatable=0;perimeter=centerPerimeter;snapToPoint=1;fontColor=#FF0F0F;strokeColor=#d71d1d;" vertex="1" parent="1">
          <mxGeometry x="2732" y="420" width="20" height="20" as="geometry" />
        </mxCell>
      </root>
    </mxGraphModel>
  </diagram>
</mxfile>
